<svg xmlns="http://www.w3.org/2000/svg" viewBox="0 0 28.95 28.68"><defs><style>.cls-1{fill:#fff;}</style></defs><title>arrow_left</title><g id="Layer_2" data-name="Layer 2"><g id="Layer_13" data-name="Layer 13"><path class="cls-1" d="M8.64,20.38c-.05,0,.26.28.31.34C8.92,20.6,8.55,20.3,8.64,20.38Z"/><polygon class="cls-1" points="8.4 19.25 8.51 19.37 8.28 19.02 8.4 19.25"/><path class="cls-1" d="M8.83,18.81c-.56-.45-.07.24-.33.14l-.13-.1.38.43C8.77,19.13,8.62,18.74,8.83,18.81Z"/><path class="cls-1" d="M10.16,19.64c-.21-.18-.12-.22-.11,0l.06,0S10.13,19.65,10.16,19.64Z"/><path class="cls-1" d="M10.11,19.68c0,.06.2.13,0,0Z"/><path class="cls-1" d="M10.2,19.35l.12.23c.13.1.21.07.28.18C10.56,19.61,10.43,19.51,10.2,19.35Z"/><path class="cls-1" d="M9.88,18.93l0,.1C10,19.08,10,19.09,9.88,18.93Z"/><path class="cls-1" d="M10,19.26,9.93,19c-.09-.07-.26-.23,0,.09C9.81,19,9.94,19.13,10,19.26Z"/><path class="cls-1" d="M9.91,19.22a.63.63,0,0,1-.38-.33C9.49,19.08,9.87,19.41,9.91,19.22Z"/><path class="cls-1" d="M8.32,18.27l-.2-.1.13.21C8.19,18.28,8.48,18.43,8.32,18.27Z"/><path class="cls-1" d="M10.83,19.24c-.11-.11-.31-.26-.45-.39l.08.17A1.14,1.14,0,0,1,10.83,19.24Z"/><path class="cls-1" d="M10.38,18.84l-.12-.25C10.18,18.63,10.26,18.73,10.38,18.84Z"/><polygon class="cls-1" points="9.32 18.37 9.61 18.86 9.34 18.34 9.32 18.37"/><polygon class="cls-1" points="11.1 19 11.31 19.28 11 18.84 11.1 19"/><path class="cls-1" d="M11.22,18.79c.18.23.39.31.49.46a1.49,1.49,0,0,0-.26-.49C11.5,18.89,11.44,18.9,11.22,18.79Z"/><path class="cls-1" d="M11.27,18.47a3,3,0,0,0,.17.29A1.55,1.55,0,0,0,11.27,18.47Z"/><path class="cls-1" d="M10.42,18.53a1.51,1.51,0,0,0,.36.25l-.33-.27Z"/><path class="cls-1" d="M10.44,18.5h0l.07,0Z"/><path class="cls-1" d="M10.42,18.54h0S10.38,18.5,10.42,18.54Z"/><path class="cls-1" d="M9.77,18.46a1.43,1.43,0,0,0-.57-.64A6.38,6.38,0,0,1,9.77,18.46Z"/><path class="cls-1" d="M10,18.2H9.86a1.8,1.8,0,0,1,.28.28Z"/><polygon class="cls-1" points="9.94 18.07 10 18.2 10.05 18.2 9.94 18.07"/><path class="cls-1" d="M10.87,18.31c-.1-.16-.08-.21-.06-.26a.23.23,0,0,0-.21,0C10.68,18.18,10.84,18.36,10.87,18.31Z"/><path class="cls-1" d="M10.64,18.38v0S10.58,18.33,10.64,18.38Z"/><path class="cls-1" d="M11.17,17.68l-.06,0,.05.05Z"/><path class="cls-1" d="M10.53,18c-.09,0,0,.06,0,.17a.16.16,0,0,1,0-.12S10.52,18,10.53,18Z"/><path class="cls-1" d="M11.23,18.23,11,18.11C11.12,18.19,11.3,18.31,11.23,18.23Z"/><path class="cls-1" d="M10.72,18.43v0C10.8,18.5,10.77,18.47,10.72,18.43Z"/><path class="cls-1" d="M10.72,18.43a2.11,2.11,0,0,0-.15-.22.49.49,0,0,0,.05.15Z"/><path class="cls-1" d="M9.35,15.62c.27.29.45.63.08.39a10.4,10.4,0,0,0,1.68,1.61,1.32,1.32,0,0,1-.33-.47c-.18-.13-.51-.2-.71-.52s.18,0,.37.13c-.39-.31-.39-.63-.92-1.12l.1.26C9.54,15.83,9.45,15.67,9.35,15.62Z"/><path class="cls-1" d="M11,17.73v.06a2,2,0,0,1,.48.28,1.52,1.52,0,0,0-.27-.39l-.18.1Z"/><path class="cls-1" d="M10.83,17.92a4.21,4.21,0,0,0-.72-.81c-.06.11.2.31.28.5.06-.21.13.21.4.28a.24.24,0,0,1,0,.15l.21.07,0,0h0s-.07-.05,0,0h0l-.11-.12c.1,0,.08.07.11.12l0,0h0l0-.3C10.89,17.78,10.86,17.83,10.83,17.92Z"/><path class="cls-1" d="M8.61,17.1l.08.07S8.64,17.09,8.61,17.1Z"/><path class="cls-1" d="M8.85,17.22c0,.05.15.18.08.18s-.15-.14-.25-.24a.78.78,0,0,0,.36.37l0-.05a2.72,2.72,0,0,1,.65.4C9.37,17.63,9.16,17.45,8.85,17.22Z"/><path class="cls-1" d="M9.77,17.49l0-.26L9.41,17l.16.15C9.45,17.18,9.66,17.36,9.77,17.49Z"/><polygon class="cls-1" points="11.34 17.82 11.65 18.15 11.26 17.63 11.34 17.82"/><polygon class="cls-1" points="11.45 17.63 11.72 17.92 11.59 17.71 11.45 17.63"/><path class="cls-1" d="M17,6l0-.12A.38.38,0,0,0,17,6Z"/><path class="cls-1" d="M16.71,6.19l.12.16C16.77,6.26,16.73,6.19,16.71,6.19Z"/><path class="cls-1" d="M15.1,14.08c.3.23.74.6.44.28l-.31-.31C15.25,14.14,15.19,14.13,15.1,14.08Z"/><path class="cls-1" d="M16,9.8l-.1-.09.24.34Z"/><path class="cls-1" d="M14.87,8.41l.25.15A1.25,1.25,0,0,0,14.87,8.41Z"/><path class="cls-1" d="M18.22,4.42,18,4C17.92,4.09,18.09,4.24,18.22,4.42Z"/><path class="cls-1" d="M12.85,16c.16.08.24.1.29.09C12.92,16,12.62,15.76,12.85,16Z"/><path class="cls-1" d="M19.82,9.63a.75.75,0,0,0-.14-.23A.59.59,0,0,0,19.82,9.63Z"/><path class="cls-1" d="M13.26,16l-.09-.05c0,.08,0,.15,0,.17C13.31,16.21,13.43,16.26,13.26,16Z"/><path class="cls-1" d="M24,.49l0,0S24,.48,24,.49Z"/><path class="cls-1" d="M28.18,2.93s0,.05,0,.07S28.18,3,28.18,2.93Z"/><path class="cls-1" d="M12.17,17.18c0,.05,0,0,0,0Z"/><path class="cls-1" d="M10.82,16.11a1.15,1.15,0,0,0-.14-.16Z"/><path class="cls-1" d="M11.72,13.74h0C11.66,13.68,11.67,13.69,11.72,13.74Z"/><path class="cls-1" d="M12,17.08l.13.05Z"/><path class="cls-1" d="M12.14,17.22h-.06C12.13,17.28,12.16,17.31,12.14,17.22Z"/><path class="cls-1" d="M12.2,17.12s0,0-.08,0l.05,0Z"/><path class="cls-1" d="M21.71,3.63l0,0C21.67,3.49,21.67,3.52,21.71,3.63Z"/><polygon class="cls-1" points="12.93 9.96 12.94 9.98 12.96 9.99 12.93 9.96"/><path class="cls-1" d="M12.84,9.61c.31.45.23.43.12.38l.88.89Z"/><path class="cls-1" d="M17.58,5.36l-.34-.23c-.3-.59-.08-.48-.51-.84.84,1.07-.26.39.58,1.46l-.24-.17s0-.07,0-.07c-.53-.41.54.83.27.8A.63.63,0,0,1,17,6l.1.35s-.19-.18-.14-.19l-.11.23,0,0c.11.18.26.48.33.61-.17-.11-.07-.13-.19-.25l.11.33c-.26-.24-.4-.57-.3-.58-1-1,.14.33-.56-.12l0-.21c-.55-.54-.44-.27-.85-.55.19.17,1,.76,1.09,1.1-.09-.05-.16-.06,0,.2-.31-.37-.29-.23-.34-.15l-.41-.49a3.74,3.74,0,0,0,.4.71c-.12,0-.46-.34-.75-.65-.2,0,.6.53.52.76-.27-.09-.18.17-.06.57-.22-.1-.24-.31-.39-.43l.26.45s-.12-.12-.17-.18c.07.2.41.49.43.7.43.56-.85-.63-.44.08a5.6,5.6,0,0,1-.41-.49,4.81,4.81,0,0,0,.46,1l-.38-.23A3.64,3.64,0,0,1,16,9.8l.41.35.09.38a2.55,2.55,0,0,1-.37-.46l.08.14a2.83,2.83,0,0,1-.62-.74l.31.26a9.07,9.07,0,0,0-.72-1,.44.44,0,0,1,.07.17,1.53,1.53,0,0,0-.16-.21s0,.07.11.22l-.5-.51.18.22-.47-.18a7.39,7.39,0,0,1,.92,1.94,11.26,11.26,0,0,0-1-1.12c.49.44,0-.35.17-.34-.1,0-.28-.24-.34-.33l.2.61c-.33-.39-.29-.25-.48-.36.7.72.3.63.43.92-.23-.25-.44-.52-.29-.54-.6-.47.65,1,.12.61,0,0,.06,0,0-.14.15.27-.14.21-.3,0l0,0c-.23,0-.46.4.08,1.06l-.77-.92,1.64,2.37A19.1,19.1,0,0,1,12.94,10c-.11,0-.23-.1-.13.16a5.52,5.52,0,0,1,.78.81,8.14,8.14,0,0,0-.93-.68,3.86,3.86,0,0,1,.79,1c-.11-.14-.76-.83-.82-.94l.61,1a6.09,6.09,0,0,0-.88-.92c.16.15-.14.1-.1.22l.24.14c-.28,0,.91,1.31.71,1.41A6,6,0,0,0,12.11,11,23.54,23.54,0,0,1,14,13.65l-.25-.22.15.37c-.52-.7-1.57-2.21-1.95-2.82-.24-.14-.28-.27-.35-.17-.24-.2-.27-.39-.25-.43l-.35,0c.47.49.3.64.69,1l-.24-.72c.46.49,1.16,1.52.94,1.57a14,14,0,0,1-.94-1.06c.14.19.16.46,0,.35l-.18-.32c-.25-.11.47.78-.06.4-.06,0-.69-.54-.43-.24a37,37,0,0,1,2.57,2.69,9,9,0,0,1-1-.61c-.47-.39-.9-1.12-1.3-1.45a2.68,2.68,0,0,1,.29.4c-.14-.08-.38-.43-.4-.29.45.51-.2.11.36.45.06.21-.18,0-.24.08a5.7,5.7,0,0,1,1,1.37,4,4,0,0,0-.37-.35c-.2.1-.49,0-.64.09a2,2,0,0,1-.51-.42c.06.11.2.29.17.35-.49-.34,0-.16-.52-.61a1.94,1.94,0,0,1,.37.74c.44.42.23-.05.12-.29a5.57,5.57,0,0,1,1.21,1.77c0,.26-.43-.34-.37-.24-.32.11.84,1.24.23,1a9.4,9.4,0,0,1-1-1c0-.24.38.1.43,0L10.94,15c-.09-.16-.12-.32,0-.24-.4-.29-.44.29-.92.14a1.44,1.44,0,0,0,.35.47v-.11c.35.26.32.53.53.6.14.29.4.71.13.63l-.45-.42c.13.13.32.2.22,0,.15.23-.74-.44-.22.18l.37.23c.15.29.52.84.29.79.47.39,0-.07.53.37-.67-.57.25-.19-.49-.77.64.52.36.14.93.56-.14-.14-.3-.25-.16-.25L12,17.08h0s0,0,0,0a1.62,1.62,0,0,1-.25-.18c-.29-.37-.16-.47-.29-.68.11,0,.14.18.32.31l-.19-.32c.32.31.64.42.72.71l.11-.08c.23.13.38.13.29-.05.11,0-.24-.46,0-.17l0-.34.08.08c.18-.1-.22-.82.51-.4,0-.13-.08-.28.09-.26l.28.27c0-.16.46.1.2-.21.79.7.46-.12.7-.09l-.34-.37c.1-.05.07-.22,0-.46l-.31-.32c-.17-.35.43,0,.53-.12.11.13,0,.13,0,.08.84.6-.17-.84.47-.43-.08-.15,0-.14.09-.08a.07.07,0,0,0,0,0h0l.21.13-.2-.14a.32.32,0,0,0,0-.23l.34.34s0,0,0,0c.16.09-.12-.2-.39-.45a1.78,1.78,0,0,0-.14-.26c.56.54-.07-.29.53.28-.24-.32,0-.41-.55-1.06.08.08.12.11.11.13s.22.06.1-.16l.43.44-.45-.7a2.28,2.28,0,0,1,.74.77c-.34-.67-.06-.31-.42-1l.26.3c0-.05-.25-.51,0-.29.6.47.56-.36,1.28-.06-.82-.83.46.29-.12-.4a2,2,0,0,1,.45.5c0-.32.49.16.08-.49.2.2.24.33.36.44,0-.05-.12-.22,0-.1a.83.83,0,0,1,.19.3c.1-.15-.44-.8-1-1.42.32.23.32.16,0-.28.19.18.41.35.39.49.07,0,.54,0,.13-.45.12.11.1,0,.06-.09.13-.06.18,0,.24-.16l-.1-.05c-.46-.62,0-.21,0-.35l0,.06c.56.26-.09-.27.52,0l-.32-.36c-.65-.8.56.32.42-.07l-.22-.18c-.17-.32,1.07.93,1.22,1s.07.13.1.19c.55.33-.38-.5-.36-.71.24.24.52.69.64.67.21.18-.47-1,.05-.63a1.66,1.66,0,0,1-.45-.56c0-.14.86.57.41-.13l.15.15a2.05,2.05,0,0,0-.25-.82c1.11,1.23-.1-1,.86.23l.15-.23.09.13c.19,0,0-.35-.17-.67a.87.87,0,0,1,.21.25c.38.09.36,0,0-.7l.33.37c-.14-.26.76.39.59-.21a1.12,1.12,0,0,1,.12.19c-.15-.63,1.35.68.32-.8l-.13-.46c-.27,0-.45-.64-.71-.82,0-.14.52.29.49.43l-.07-.06c.55.77.43.09.82.6.33-.31,1-.17,1.35-.39l-.48-.55.14-.06c.13.11.39.43.28.46.29.3-.07-.38-.16-.51.34.11.45.73.51.71l0-.09L24,6.34c-.12-.28-.31-.54-.19-.58s.3.34.35.34.05.06.05,0L24.37,6,24,5.6c-.1-.28.16-.08-.3-.55.7.73.77-.13,1,.08-.16-.41-.06-.47.08-.51-.1-.08-.5-.59-.35-.6.76,1.11.52.34,1.17,1.06-.45-.47.19-.33-.46-1,.15,0,.3.4.55.61-.11-.56.63,0,.77-.35a2.9,2.9,0,0,1-.4-.59l.64.63c0-.1-.54-.86-.1-.42-.1-.11-.25-.28-.25-.35,1,.36.58-1.27,2-.28-.26-.24-.23-.29-.19-.34a4.35,4.35,0,0,1-.39-.55l.58.4c-.34-.57.19-.19-.14-.73v.14C27.85,1.6,27.13,1,26.6.19c.38.77-1-.86-.45.26C26,.31,26,.17,25.86,0c.19.37.19.47,0,.38l0-.09c-.2.26-.54,0-1,0l.29.37c-.1,0-.2-.12-.29-.2.34.64.2-.09.59.6-.64-.73-.44.3-1.13-.56-.1.06.35.43.25.49l-.2-.22.2.33c-.1,0-.35-.29-.49-.49,0,0,0-.09,0-.12-.28-.23-.16.26-.25.19l.2.08c-.1.41-.65.32-.54,1l.15.17c.05.47-.3-.09-.39.22l0,0c.09.21.1.34,0,.36-.1-.25-.4-.34-.5-.62.06.51.1.36.46,1.12l-.25-.28c.15.3.25.45.21.6-.1-.32-.4-.41-.56-.81-.7-.49.17.9-.64,0,.51.9.53.32.6.53.25.23.38.68.25.65s-.9-1-1.07-.82c0,0,0-.07,0-.08-.22-.16.08.38-.25.1.33.53-.13.05.34.69l0-.27c0,.23.51,1,.09.79a2.55,2.55,0,0,1-.21-.45c-.18-.15,0,.19-.18,0-.47-.64.09-.28-.18-.84-.25-.23.16.6-.31-.13.59.92-.26,0,.13.77l-.28-.38c0,.07.12.28.08.3l-.31-.54c.22.49-.46-.23-.38.07.18-.16.39.42.68.63.15.68-.89-.88-1-.5,0-.08.31.12.39.34a1.4,1.4,0,0,1-.47-.31c-.11.21.33.37.43.66-.41-.41.06.25.1.46l-.3-.38c-.39-.09.56.84.16.68l-.33-.59v.21l-.32-.45c.15.4.05.34-.14.3.23.25.53.7.45.78-.24-.18-.25-.39-.33-.24-.16-.26-.36-.58,0-.27l-.25-.39c-.27-.21-.21.07-.25.11a.17.17,0,0,1,.12.05l.23.67a1.13,1.13,0,0,1-.27-.38c0,.07.11.26.08.34a3.14,3.14,0,0,1-.52-.84l.1.48c-.12-.12-.38-.3-.45-.43-.24-.1.24.78-.07.64a.5.5,0,0,1,.08.2c-.17,0-.58-.27-.38.26l-.52-.48c0,.21.66.6.65,1s-.42-.43-.59-.54c.16.33.5,1,0,.63C17.48,5.37,17.58,5.43,17.58,5.36ZM16.44,6.69c0-.1-.19-.38,0-.18C16.78,7,16.59,6.78,16.44,6.69ZM15.21,9.27c-.09-.14,0-.1.15,0S15.33,9.33,15.21,9.27Zm-3,7.3v0C12.41,16.63,12.34,16.59,12.24,16.56Zm-.25,0a.64.64,0,0,0,.14.15c-.08-.09-.06-.12,0-.13S11.95,16.41,12,16.52ZM24,5.94l-.1-.08C23.91,5.71,24,5.82,24,5.94Z"/><path class="cls-1" d="M15,8.57l.18.19A.58.58,0,0,0,15,8.57Z"/><polygon class="cls-1" points="18.26 4.49 18.27 4.49 18.22 4.42 18.26 4.49"/><path class="cls-1" d="M10.86,11.94a.89.89,0,0,1,.22.14C11,12,10.91,11.93,10.86,11.94Z"/><path class="cls-1" d="M12,17.65l0-.16s-.1,0-.17-.05C11.89,17.52,12,17.63,12,17.65Z"/><path class="cls-1" d="M9.3,16.13c0,.05,0,0,0,.08l.16.16C9.51,16.31,9.42,16.15,9.3,16.13Z"/><path class="cls-1" d="M10.81,16.58c-.29-.28-.24-.14-.23,0h0C11,16.94,10.89,16.76,10.81,16.58Z"/><path class="cls-1" d="M10.58,16.56s0,.05,0,.05C10.7,16.77,10.59,16.62,10.58,16.56Z"/><path class="cls-1" d="M12,16.84c-.1-.05.35.38.22.28C12.6,17.51,12,16.52,12,16.84Z"/><polygon class="cls-1" points="9.83 15.67 10.2 16 9.95 15.69 9.83 15.67"/><path class="cls-1" d="M10.47,15.55l-.17,0a.37.37,0,0,1,.1.14C10.46,15.63,10.58,15.65,10.47,15.55Z"/><path class="cls-1" d="M10.4,15.67s0,0,0,.12A.14.14,0,0,0,10.4,15.67Z"/><polygon class="cls-1" points="9.83 15.46 9.93 15.51 10.01 15.48 9.83 15.46"/><path class="cls-1" d="M11.38,14.81v-.19c-.11-.13-.21-.19-.19-.11A.8.8,0,0,0,11.38,14.81Z"/><path class="cls-1" d="M10.16,14.07a2.18,2.18,0,0,1,.3.24L10,13.86Z"/><path class="cls-1" d="M10.31,13.72c-.11-.13-.22-.48-.3-.34C10.12,13.51,10.14,13.7,10.31,13.72Z"/><polygon class="cls-1" points="12.16 13.05 12.14 13.08 12.84 13.82 12.16 13.05"/><path class="cls-1" d="M11.67,10.18c-.27-.08.4.49.1.35.14.2.25.11.36.29C12,10.57,12.16,10.65,11.67,10.18Z"/><path class="cls-1" d="M12.13,10.82l.07.14A.75.75,0,0,0,12.13,10.82Z"/><polygon class="cls-1" points="28.76 3.2 28.95 3.32 28.71 3.07 28.76 3.2"/><path class="cls-1" d="M28.47,2.48l.38.52-.29-.52S28.57,2.59,28.47,2.48Z"/><path class="cls-1" d="M15.41,5.85l.09.12c.12.12.14.12.19.11Z"/><polygon class="cls-1" points="16.69 5.43 16.66 5.43 17.07 5.86 16.69 5.43"/><path class="cls-1" d="M17,4.18s0,.14-.06.15S17.51,4.74,17,4.18Z"/><path class="cls-1" d="M26.94,16.12c.08,0,0-.38-.06-.46C26.79,15.78,27,16.22,26.94,16.12Z"/><polygon class="cls-1" points="26 17.35 25.98 17.18 25.92 17.63 26 17.35"/><path class="cls-1" d="M24.91,17.63c.29.66.37-.22.63,0l.07.15-.06-.58C25.34,17.33,25.13,17.78,24.91,17.63Z"/><path class="cls-1" d="M23.92,16.29c.11.26-.07.26.16,0l0-.06A.24.24,0,0,1,23.92,16.29Z"/><path class="cls-1" d="M24,16.28c.11-.05-.14-.2,0,0Z"/><path class="cls-1" d="M23.55,16.58l.09-.28c-.07-.15-.22-.15-.2-.28C23.31,16.19,23.39,16.34,23.55,16.58Z"/><path class="cls-1" d="M23.54,17.12l.05-.12C23.56,16.93,23.53,16.92,23.54,17.12Z"/><path class="cls-1" d="M23.7,16.74l-.11.26c.05.11.11.33.06-.1C23.69,17.11,23.67,16.9,23.7,16.74Z"/><path class="cls-1" d="M23.82,16.82c.13.13.26.19.17.47C24.26,17.12,24.09,16.64,23.82,16.82Z"/><path class="cls-1" d="M25,18.36l.17.17,0-.26C25.23,18.4,25,18.14,25,18.36Z"/><path class="cls-1" d="M22.5,16.48c0,.15.16.38.22.56l.07-.2A.75.75,0,0,1,22.5,16.48Z"/><path class="cls-1" d="M22.72,17l-.1.3C22.78,17.33,22.77,17.2,22.72,17Z"/><polygon class="cls-1" points="23.72 17.89 23.85 17.29 23.67 17.91 23.72 17.89"/><polygon class="cls-1" points="21.85 16.64 21.85 16.27 21.82 16.83 21.85 16.64"/><path class="cls-1" d="M21.44,16.81c0-.3-.23-.45-.2-.64-.1.08-.13.35-.16.59C21.14,16.62,21.25,16.62,21.44,16.81Z"/><path class="cls-1" d="M21,17.12a2,2,0,0,0,.06-.36A1,1,0,0,0,21,17.12Z"/><path class="cls-1" d="M22.31,17.34a.9.9,0,0,0-.25-.38l.18.39Z"/><path class="cls-1" d="M22.25,17.37h0l-.15,0Z"/><path class="cls-1" d="M22.33,17.34h0S22.34,17.39,22.33,17.34Z"/><path class="cls-1" d="M23.18,17.64c0,.26-.17.56.12.86C23.29,18.19,23.12,18,23.18,17.64Z"/><path class="cls-1" d="M22.55,17.83l.2,0a1,1,0,0,1-.09-.39Z"/><polygon class="cls-1" points="22.5 17.99 22.55 17.83 22.48 17.82 22.5 17.99"/><path class="cls-1" d="M21.43,17.42a.33.33,0,0,1-.19.29.51.51,0,0,0,.34,0C21.55,17.62,21.53,17.38,21.43,17.42Z"/><path class="cls-1" d="M21.84,17.43v0S21.86,17.5,21.84,17.43Z"/><path class="cls-1" d="M20.29,18l0,.07,0-.07Z"/><path class="cls-1" d="M21.61,17.83c.1.06.12-.06.13-.19a.36.36,0,0,1-.16.12C21.58,17.82,21.59,17.85,21.61,17.83Z"/><path class="cls-1" d="M20.81,17.39a1.46,1.46,0,0,0,.2.19C20.93,17.46,20.79,17.28,20.81,17.39Z"/><path class="cls-1" d="M21.77,17.35v0C21.73,17.25,21.74,17.29,21.77,17.35Z"/><path class="cls-1" d="M21.77,17.35a1.31,1.31,0,0,0,0,.28.48.48,0,0,0,.09-.17Z"/><path class="cls-1" d="M20.76,20.7c-.09-.39,0-.79.29-.43A5.7,5.7,0,0,0,20.33,18a.81.81,0,0,1,0,.6c.12.19.53.38.48.76s-.23-.08-.4-.25c.23.45-.1.77.15,1.46l.13-.3C20.7,20.42,20.67,20.61,20.76,20.7Z"/><path class="cls-1" d="M20.68,18l.06-.07c-.1,0-.2-.18-.4-.45a.91.91,0,0,0,0,.5l.37,0Z"/><path class="cls-1" d="M21.06,17.83c.06.43-.06.66.17,1.08.2-.09.05-.39.13-.6-.31.2,0-.26-.28-.42a.4.4,0,0,1,.15-.16,1.05,1.05,0,0,1-.23-.14l0,0h0s0,.08,0,.05h0a1.6,1.6,0,0,1,0,.16c-.12-.06,0-.1,0-.16V17.6h0l-.28.32C20.83,18,20.91,17.92,21.06,17.83Z"/><path class="cls-1" d="M23.36,19.44a.36.36,0,0,1,0-.09C23.31,19.4,23.31,19.44,23.36,19.44Z"/><path class="cls-1" d="M23.15,19.23c0-.06,0-.24.08-.22s.05.2.1.33a.46.46,0,0,0-.12-.51v.06a1.76,1.76,0,0,1-.49-.64A7,7,0,0,0,23.15,19.23Z"/><path class="cls-1" d="M22.13,18.64l-.23.28.24.32L22.07,19C22.26,19.06,22.15,18.81,22.13,18.64Z"/><polygon class="cls-1" points="20.2 17.78 20.12 17.33 20.13 18 20.2 17.78"/><polygon class="cls-1" points="19.85 17.94 19.75 17.55 19.72 17.81 19.85 17.94"/><path class="cls-1" d="M1.77,22.72l-.1-.08A.16.16,0,0,0,1.77,22.72Z"/><path class="cls-1" d="M1.59,23.63l.22-.09C1.69,23.56,1.6,23.59,1.59,23.63Z"/><path class="cls-1" d="M10.76,20.7c-.23-.31-.54-.82-.39-.4l.17.4C10.6,20.6,10.68,20.63,10.76,20.7Z"/><path class="cls-1" d="M5.29,25.21l-.09.17.47-.59Z"/><path class="cls-1" d="M3.44,27.74q0-.15,0-.31A.53.53,0,0,0,3.44,27.74Z"/><path class="cls-1" d="M2.66,17.68l-.41-.19C2.22,17.62,2.45,17.62,2.66,17.68Z"/><path class="cls-1" d="M16.09,19.19a.55.55,0,0,0-.34-.17C16,19.22,16.16,19.55,16.09,19.19Z"/><path class="cls-1" d="M7.06,20.69a1.8,1.8,0,0,0-.31.11A1.13,1.13,0,0,0,7.06,20.69Z"/><path class="cls-1" d="M15.45,19.11l.08.08c.06-.09.12-.17.22-.17C15.61,18.87,15.47,18.79,15.45,19.11Z"/><path class="cls-1" d="M5.23,5.67h.06C5.23,5.64,5.23,5.65,5.23,5.67Z"/><path class="cls-1" d="M9.74,2.3a.46.46,0,0,1,.06.18S9.81,2.39,9.74,2.3Z"/><path class="cls-1" d="M18.3,18.18c.07-.05,0,0,0,0Z"/><path class="cls-1" d="M19.16,19.72a.64.64,0,0,0,0,.21A.83.83,0,0,1,19.16,19.72Z"/><path class="cls-1" d="M15.44,21.93h0C15.48,22,15.48,22,15.44,21.93Z"/><path class="cls-1" d="M18.47,18.34a.46.46,0,0,0-.14-.09A.51.51,0,0,0,18.47,18.34Z"/><path class="cls-1" d="M18.4,18.14l.08,0C18.47,18.09,18.45,18.05,18.4,18.14Z"/><path class="cls-1" d="M18.2,18.24a.18.18,0,0,1,.14,0,.1.1,0,0,1,0-.06Z"/><path class="cls-1" d="M4.79,12.44h0C4.67,12.32,4.69,12.36,4.79,12.44Z"/><path class="cls-1" d="M9.74,25.76v0h0Z"/><path class="cls-1" d="M9.34,26.23c.16-.62.25-.58.4-.51q-.15-.61-.26-1.23Q9.44,25.35,9.34,26.23Z"/><path class="cls-1" d="M2.2,20.46l-.52.38c-.58-.32-.23-.72-.93-.3.72,0,.66.31.6.64s-.1.67.66.48l-.37.3c0-.06-.06,0,0-.11-.82.64,1,0,.71.5-.15.2-.4.42-.56.37a3.52,3.52,0,0,0,.31.21c0,.12-.31.21-.26.09l0,.49,0,0c.22,0,.57-.07.71-.08-.23.25-.15,0-.34.16l.33.07c-.4.35-.75.33-.67.09-1.53,1.14.35,0-.57,1.15l-.17-.17c-.85.72-.56.77-1.09,1.49.26-.3,1.34-1.57,1.68-1.48-.12.16-.18.32.1.28-.52.37-.4.45-.39.64l-.67.5c.18.1.53-.2.82-.3a4.6,4.6,0,0,1-1,1.24c-.12.54.84-1,.94-.61-.27.57,0,.6.36.61-.23.48-.4.36-.59.65l.52-.31a1.14,1.14,0,0,1-.26.3c.2,0,.66-.67.83-.6.19-.19.18-.14.17-.08a4.56,4.56,0,0,1-.22.42c-.19.35-.4.79.14.29-.19.29-.48.55-.76.91a1.05,1.05,0,0,0,.26-.21,13.55,13.55,0,0,0,1.72-1.54q-.07.25-.12.48a12.2,12.2,0,0,1,1.8-2.21l.37-.68L6.24,24a7.17,7.17,0,0,1-.58.81l.19-.23A6.67,6.67,0,0,1,5,25.88l.24-.5c-.45.56-1,1.19-1.31,1.71a2.3,2.3,0,0,1,.31-.29,3.59,3.59,0,0,0-.29.38c0,.09.13-.12.35-.37l-.56.94.29-.4a2.09,2.09,0,0,0,.23.39c1-1.11,2.08-2.58,2.7-3.1a14.41,14.41,0,0,0-.84,1.84c.21-.76-.66.52-.94.47.13,0-.11.42-.23.57q.54-.5,1-1c-.31.64-.09.43,0,.63.41-1.2.8-1,1.16-1.42-.12.39-.31.82-.59.83,0,.78.9-1.54,1-.88-.07,0-.09,0-.18.19.26-.4.57-.26.41.1l-.08,0c.46,0,1.53-.49,1.54-1.4,0,.11,0,1.09-.08,1.29a12,12,0,0,0,.47-3.16c0,.76.62,2.39.26,2.95.13.07.32.13.53-.21A2.18,2.18,0,0,1,10,24.45c.45.71.27.37.83.92-.16-.11-.37-1.25-.24-1.25,0,.17.35,1.07.34,1.2V24.14a3.45,3.45,0,0,0,.44,1.19c-.1-.2.29-.07.34-.21l-.22-.2c.42,0-.11-1.62.28-1.68,0,.24.32,1.4.55,1.47A13,13,0,0,1,12,21.43l.16.29.14-.44a35,35,0,0,1,.18,3.51c.22.21.15.36.35.26a.4.4,0,0,1,0,.52l.54,0c-.22-.64.17-.76,0-1.29l-.32.83c-.22-.63-.26-1.92.12-1.91a7.89,7.89,0,0,1,.36,1.38c0-.23.19-.52.27-.38l0,.39c.27.18,0-.95.47-.41.09,0,.49.75.39.37a20.75,20.75,0,0,1-1.16-3.53,5.85,5.85,0,0,1,.84.91c.31.54.22,1.43.48,1.89a1.58,1.58,0,0,1,0-.49c.13.12.13.55.29.42-.17-.66.39-.06-.08-.58.12-.24.23.08.43,0a3.34,3.34,0,0,1-.12-1.73,2.21,2.21,0,0,0,.19.47c.38-.05.67.19,1,.09.08.15.3.29.31.59,0-.13,0-.37.09-.41.37.5-.21.16.15.79-.1-.38.12-.61.19-.89-.22-.57-.38,0-.46.27a3.38,3.38,0,0,1,0-2.21c.23-.28.28.49.29.36.58,0,0-1.55.66-1.09a5.13,5.13,0,0,1,.45,1.38c-.17.26-.45-.22-.6-.16l.26.19c0,.19-.14.37-.27.24.28.42.93-.18,1.46.13a.87.87,0,0,0,0-.6l-.11.11c-.24-.38.08-.65-.14-.79.09-.34.16-.86.47-.7l.22.58c-.05-.17-.26-.3-.28-.11,0-.29.61.69.5-.11l-.29-.36c.09-.35.13-1,.4-.91-.27-.55,0,.08-.38-.56.38.81-.57.13-.1,1-.39-.74-.37-.26-.78-.87.06.19.18.35,0,.31a1.46,1.46,0,0,1,0,.18h0l0,0s0,0,0,0a1,1,0,0,1,.18.27c0,.47-.26.54-.29.8-.14-.06,0-.24-.14-.43l0,.39c-.14-.43-.5-.63-.31-1l-.24,0c-.21-.2-.42-.24-.49,0C17,18.4,17,19,17,18.65l-.28.37,0-.11c-.38,0-.53.93-1.17.28-.09.14-.17.31-.41.25L15,19.08c-.12.17-.58-.23-.53.18-.47-1-.82,0-1.14-.09l.14.49c-.2,0-.33.22-.5.49l.15.42c-.09.41-.61-.15-.91,0,0-.17.06-.15.15-.07-.68-.85-.58,1-1.14.35,0,.18-.11.15-.21.06a0,0,0,0,0,0,0h0l-.19-.19a1.05,1.05,0,0,0,.17.2.51.51,0,0,0-.21.25l-.19-.45,0,0c-.15-.14,0,.24.15.57a1.17,1.17,0,0,0,0,.32c-.31-.72-.18.33-.53-.43.06.41-.4.45-.19,1.27,0-.1-.08-.15,0-.17-.15-.05-.2-.14-.22.12l-.17-.59a7.34,7.34,0,0,1,0,.86,2,2,0,0,1-.2-1A6.32,6.32,0,0,1,9,22.76v-.42c-.05,0-.2.64-.23.3s-.2-.36-.39-.32S8,22.43,8,22c-.58,1.41.16-.6-.38.52a5.9,5.9,0,0,1,.4-.84c-.32.39.15-.51-.52.51L8,21.5c-.05.08-.23.33-.1.11s.2-.31.31-.47c-.11.08-.87,1.23-1.59,2.31.23-.47.16-.39-.44.36a3.87,3.87,0,0,1,.64-.87s0-.41-.69.5c.16-.22,0,0-.15.08H6c-.1,0-.06-.07-.28.06l-.09.14c-.53.58-.63.66-.63.62A.9.9,0,0,1,5,24.21c0-.08.07-.14,0-.14L5.18,24c.77-1.11-.37.2.52-1l-.65.64c-.7.66-.48.36-.16,0s.76-.86.5-.72L5,23.27c-.23.15.25-.34.81-.85l1.28-1.13a1.8,1.8,0,0,1,.27-.18c.82-.74-.82.63-1,.63.45-.34,1.12-.8,1.22-.92s-.17.08-.45.21-.48.17-.06-.11a4.85,4.85,0,0,1-.9.5c-.08-.09,1.28-.88.31-.5l.25-.13a4,4,0,0,0-.84,0c1-.35.77-.37.57-.45s-.41-.19.41-.28v-.23H7c.15-.14-.22-.21-.56-.32a.8.8,0,0,1,.33,0c.19-.1.27-.17.22-.26s-.24-.19-.55-.5l.49.08c-.25-.16.93-.51.45-1.13a.57.57,0,0,1,.21.1c-.46-.62,1.56-1.19-.21-1.57L7,15.89c-.18.42-.78-.13-1.09,0-.09-.17.58-.39.65-.18l-.09,0c.93.15.37-.51,1-.45a10.3,10.3,0,0,1,.7-2.23l-.74,0,.08-.24c.18,0,.58,0,.52.16.42,0-.3-.33-.45-.36.35-.28.82.27.86.17l0-.14-.09,0c-.28-.16-.59-.22-.52-.43s.46,0,.49,0,.08,0,0-.07l.12-.29H7.88c-.25-.2.09-.29-.58-.28,1,0,.64-1.09,1-1.16-.35-.31-.29-.51-.17-.74-.13,0-.77-.11-.63-.3,1.27.44.67-.24,1.65-.16-.66,0,0-.66-.92-.66.15-.15.49.12.83.06-.38-.57.59-.89.55-1.52a1.5,1.5,0,0,1-.68-.19l.93-.12c-.06-.14-1-.31-.33-.41-.15,0-.38,0-.42-.08a2,2,0,0,0,.42-1.78,2.34,2.34,0,0,1,.7-2c-.31.22-.36.1-.4,0-.07.1-.43,0-.67.09q.29-.3.58-.64c-.66,0-.18-.59-.8-.5l.15.14c-.77,0-1.55.66-2.5.79.44,0,.14.2-.1.36S6,3,6.61,3.13c-.19.08-.31,0-.53,0,.41,0,.5.13.33.3h-.1c.11.46-.3.66-.62,1.14h.47c-.07.11-.22.11-.35.15.7.22.07-.32.85-.11-1,0-.13.85-1.23.78,0,.18.55,0,.51.23h-.3L6,5.75c-.09.11-.46.1-.71,0,0,0-.05-.09-.07-.13-.37.08,0,.46-.1.49L5.35,6c.16.57-.38,1.1.06,1.78l.23,0c.29.51-.33.26-.26.75l0,0c.19.15.27.3.21.41C5.31,8.77,5,9,4.74,8.81c.3.57.27.32,1,.83l-.38,0c.3.19.47.24.5.49-.26-.27-.59,0-.94-.31-.92.29.61.93-.6.88.95.46.66-.3.84-.12.35,0,.7.36.57.49s-1.34,0-1.41.41c0,0-.06-.06,0-.1-.29.11.28.37-.17.5.59.22-.08.25.7.41l-.12-.41c.17.26,1,.6.55.88a1.49,1.49,0,0,1-.45-.27c-.25.07.12.22-.13.3-.79-.14-.1-.5-.66-.83-.35.07.49.55-.34.3,1,.33-.2.43.59.82L3.79,13c.07.06.28.17.26.26L3.46,13c.5.29-.5.42-.23.67,0-.47.58-.06.94-.22.59.61-1.27.23-1.08.87-.06-.09.31-.29.52-.15a1.1,1.1,0,0,1-.55.3c.07.4.49,0,.77.16-.59.1.22.21.4.39l-.48,0c-.34.41,1,.19.59.55l-.65-.21.16.21-.54-.08c.39.24.28.3.11.48.34,0,.87.11.86.29-.3.09-.45-.12-.41.14-.29-.09-.66-.19-.21-.25-.16,0-.29-.09-.45-.11-.34.09-.11.3-.11.38a.17.17,0,0,1,.12-.08l.62.43a.78.78,0,0,1-.46-.1c0,.07.25.16.28.26a2.41,2.41,0,0,1-.94-.31l.38.37c-.17,0-.49.07-.62,0-.26.11.66.57.3.75a.38.38,0,0,1,.18.14c-.12.12-.73.5-.32,1l-.8.22c0,.43,1-.29,1.09.37.1.44-.67.15-.93.31.29.27.95.56.22,1C2.07,20.71,2.21,20.59,2.2,20.46Zm-.51,4.28c-.1,0-.43.06-.11-.2C2.17,24.25,1.87,24.49,1.69,24.74Zm3.25,1.57c-.19.23-.21.16-.14-.06S5,26.17,4.94,26.31Zm12.6-7.5v0C17.36,18.69,17.43,18.75,17.54,18.81Zm.32.12a.35.35,0,0,0,0-.2c0,.12,0,.15-.12.14S17.82,19.06,17.87,18.93ZM8.14,12.15l-.13,0C7.89,12,8,12.1,8.14,12.15Z"/><path class="cls-1" d="M3.66,27.44c.06-.11.14-.23.22-.35A.89.89,0,0,0,3.66,27.44Z"/><polygon class="cls-1" points="2.74 17.71 2.74 17.71 2.66 17.68 2.74 17.71"/><path class="cls-1" d="M14.95,24.07a.61.61,0,0,1-.18-.21C14.8,24,14.86,24.06,14.95,24.07Z"/><path class="cls-1" d="M19.06,17.74l-.14.17c.08,0,.13,0,.2.11C19.08,17.91,19,17.76,19.06,17.74Z"/><path class="cls-1" d="M21.35,20.19c0-.06.05,0,.06-.09l-.07-.21A.17.17,0,0,0,21.35,20.19Z"/><path class="cls-1" d="M19.65,19.23c.12.39.19.22.29.12h0C19.8,18.8,19.73,19,19.65,19.23Z"/><path class="cls-1" d="M20,19.33a.12.12,0,0,1,.11,0C20,19.07,20,19.26,20,19.33Z"/><path class="cls-1" d="M18.13,18.58c.09.08-.11-.51,0-.36C18,17.7,17.9,18.93,18.13,18.58Z"/><polygon class="cls-1" points="20.11 20.49 19.93 20.02 19.98 20.43 20.11 20.49"/><path class="cls-1" d="M19.08,20.41l.23.08a.23.23,0,0,1,0-.18C19.19,20.33,19,20.27,19.08,20.41Z"/><path class="cls-1" d="M19.31,20.31a.13.13,0,0,0,.13-.12A.26.26,0,0,0,19.31,20.31Z"/><polygon class="cls-1" points="19.9 20.71 19.81 20.63 19.67 20.63 19.9 20.71"/><path class="cls-1" d="M17,20.91l-.17.2c0,.17.11.25.17.17S17.09,21.06,17,20.91Z"/><path class="cls-1" d="M18,22a1.3,1.3,0,0,1-.2-.34l.17.6Z"/><path class="cls-1" d="M17.46,22.36c0,.17-.16.56.09.45C17.53,22.64,17.69,22.44,17.46,22.36Z"/><polygon class="cls-1" points="14.13 22.54 14.18 22.51 13.88 21.54 14.13 22.54"/><path class="cls-1" d="M12.14,25.71c.31.16-.13-.62.18-.4,0-.25-.25-.18-.26-.4C12,25.2,11.87,25.09,12.14,25.71Z"/><path class="cls-1" d="M12.06,24.92a1.14,1.14,0,0,0,0-.17A.53.53,0,0,0,12.06,24.92Z"/><polygon class="cls-1" points="10.14 1.44 10.3 1.18 10 1.39 10.14 1.44"/><path class="cls-1" d="M9.31,1.23,9.93,1l-.6,0S9.45,1.15,9.31,1.23Z"/><path class="cls-1" d="M.26,26.37l.16-.11a.6.6,0,0,0,.23-.37Z"/><polygon class="cls-1" points="1.11 22.68 1.08 22.74 1.76 22.39 1.11 22.68"/><path class="cls-1" d="M1.17,19.51c-.07.15,0,.32-.05.46C1.1,19.65,1.94,19.5,1.17,19.51Z"/></g></g></svg>