<svg xmlns="http://www.w3.org/2000/svg" viewBox="0 0 27.32 29.74"><defs><style>.cls-1{fill:#fff;}</style></defs><title>arrow_right</title><g id="Layer_2" data-name="Layer 2"><g id="Layer_13" data-name="Layer 13"><path class="cls-1" d="M23.24,18.11c0,.06.3-.24.36-.29C23.48,17.84,23.16,18.19,23.24,18.11Z"/><polygon class="cls-1" points="22.08 18.28 22.21 18.17 21.84 18.39 22.08 18.28"/><path class="cls-1" d="M21.65,17.82c-.47.54.24.09.14.34l-.11.13.45-.36C22,17.89,21.57,18,21.65,17.82Z"/><path class="cls-1" d="M22.53,16.5c-.18.21-.22.11,0,.12l0-.06S22.54,16.54,22.53,16.5Z"/><path class="cls-1" d="M22.56,16.56c.06,0,.14-.19,0,0Z"/><path class="cls-1" d="M22.23,16.45l.24-.11c.1-.13.08-.21.18-.27C22.49,16.09,22.39,16.22,22.23,16.45Z"/><path class="cls-1" d="M21.8,16.75l.11,0C22,16.66,22,16.63,21.8,16.75Z"/><path class="cls-1" d="M22.13,16.62l-.23.09c-.07.09-.24.25.09,0C21.84,16.83,22,16.7,22.13,16.62Z"/><path class="cls-1" d="M22.09,16.74a.61.61,0,0,1-.34.37C21.94,17.16,22.28,16.79,22.09,16.74Z"/><path class="cls-1" d="M21.1,18.3,21,18.5l.21-.13C21.1,18.43,21.26,18.15,21.1,18.3Z"/><path class="cls-1" d="M22.11,15.79c-.11.1-.27.3-.4.45l.17-.08A1.1,1.1,0,0,1,22.11,15.79Z"/><path class="cls-1" d="M21.71,16.24l-.25.11C21.49,16.44,21.59,16.36,21.71,16.24Z"/><polygon class="cls-1" points="21.22 17.29 21.73 17.02 21.19 17.27 21.22 17.29"/><polygon class="cls-1" points="21.86 15.52 22.15 15.31 21.7 15.61 21.86 15.52"/><path class="cls-1" d="M21.65,15.38c.24-.18.31-.39.47-.48a1.41,1.41,0,0,0-.5.24C21.74,15.09,21.76,15.16,21.65,15.38Z"/><path class="cls-1" d="M21.32,15.31l.29-.17A1.46,1.46,0,0,0,21.32,15.31Z"/><path class="cls-1" d="M21.39,16.18a1.45,1.45,0,0,0,.26-.36l-.28.33Z"/><path class="cls-1" d="M21.36,16.16h0l0-.08Z"/><path class="cls-1" d="M21.4,16.19h0S21.36,16.23,21.4,16.19Z"/><path class="cls-1" d="M21.32,16.84a1.4,1.4,0,0,0-.66.56A6.14,6.14,0,0,1,21.32,16.84Z"/><path class="cls-1" d="M21,16.6v.14a1.74,1.74,0,0,1,.29-.27Z"/><polygon class="cls-1" points="20.92 16.66 21.05 16.6 21.05 16.55 20.92 16.66"/><path class="cls-1" d="M21.16,15.72c-.16.1-.21.07-.27.06a.24.24,0,0,0,0,.22C21,15.91,21.22,15.75,21.16,15.72Z"/><path class="cls-1" d="M21.23,16h0S21.18,16,21.23,16Z"/><path class="cls-1" d="M20.51,15.39l0,.06.05-.05Z"/><path class="cls-1" d="M20.88,16.06c0,.09.07,0,.18,0a.16.16,0,0,1-.13,0S20.85,16.06,20.88,16.06Z"/><path class="cls-1" d="M21.07,15.34a2,2,0,0,0-.11.22C21,15.45,21.16,15.27,21.07,15.34Z"/><path class="cls-1" d="M21.28,15.88h0C21.35,15.79,21.32,15.83,21.28,15.88Z"/><path class="cls-1" d="M21.28,15.88a2,2,0,0,0-.23.14.48.48,0,0,0,.15,0Z"/><path class="cls-1" d="M18.46,17.22c.29-.28.63-.45.4-.08a10.17,10.17,0,0,0,1.61-1.68,1.3,1.3,0,0,1-.47.33c-.13.18-.2.52-.51.71s0-.18.12-.37c-.31.39-.63.39-1.12.92l.26-.1C18.67,17,18.51,17.12,18.46,17.22Z"/><path class="cls-1" d="M20.57,15.62h.06a1.94,1.94,0,0,1,.28-.48,1.46,1.46,0,0,0-.4.27l.11.18Z"/><path class="cls-1" d="M20.77,15.74a4.06,4.06,0,0,0-.82.71c.11.07.32-.19.5-.27-.21-.07.21-.13.28-.4a.24.24,0,0,1,.16,0,1.05,1.05,0,0,1,.07-.21l0,0h0s-.05.07,0,0h0l-.12.11c0-.1.07-.08.12-.11l0,0h0l-.31,0C20.62,15.68,20.67,15.71,20.77,15.74Z"/><path class="cls-1" d="M19.93,18,20,17.9S19.92,17.95,19.93,18Z"/><path class="cls-1" d="M20.06,17.73c.05,0,.18-.14.19-.08s-.15.14-.25.24a.77.77,0,0,0,.38-.36l-.05,0a2.72,2.72,0,0,1,.41-.64C20.47,17.22,20.29,17.43,20.06,17.73Z"/><path class="cls-1" d="M20.33,16.81l-.27,0-.21.32L20,17C20,17.13,20.2,16.93,20.33,16.81Z"/><polygon class="cls-1" points="20.65 15.23 20.99 14.92 20.46 15.31 20.65 15.23"/><polygon class="cls-1" points="20.46 15.11 20.74 14.84 20.53 14.97 20.46 15.11"/><path class="cls-1" d="M8.31,10.74l-.11.06Z"/><path class="cls-1" d="M8.56,11l.13-.15C8.61,10.9,8.55,11,8.56,11Z"/><path class="cls-1" d="M16.59,11.48c.2-.32.52-.8.23-.46l-.28.33C16.64,11.33,16.63,11.39,16.59,11.48Z"/><path class="cls-1" d="M12.19,11l-.07.11.31-.28Z"/><path class="cls-1" d="M11,12.35l.11-.27A1.29,1.29,0,0,0,11,12.35Z"/><path class="cls-1" d="M6.58,9.93l-.32.31C6.33,10.29,6.44,10.09,6.58,9.93Z"/><path class="cls-1" d="M18.77,13.68c.07-.16.09-.25.07-.3C18.72,13.62,18.5,13.93,18.77,13.68Z"/><path class="cls-1" d="M11.34,7.27a.72.72,0,0,0-.2.18A.58.58,0,0,0,11.34,7.27Z"/><path class="cls-1" d="M18.71,13.26l0,.1c.08,0,.16,0,.18,0C18.93,13.21,19,13.09,18.71,13.26Z"/><path class="cls-1" d="M1.43,5.6l0-.05S1.42,5.6,1.43,5.6Z"/><path class="cls-1" d="M2.3.87s.06,0,.09,0S2.37.85,2.3.87Z"/><path class="cls-1" d="M20,14.37c.05,0,0,0,0,0Z"/><path class="cls-1" d="M18.93,15.75l-.16.14Z"/><path class="cls-1" d="M16.52,14.91h0C16.47,15,16.48,15,16.52,14.91Z"/><path class="cls-1" d="M19.88,14.56a.5.5,0,0,0,0-.13A.57.57,0,0,0,19.88,14.56Z"/><path class="cls-1" d="M20,14.4v.06C20.08,14.41,20.1,14.38,20,14.4Z"/><path class="cls-1" d="M19.91,14.34s0,0,0,.08l0-.06Z"/><path class="cls-1" d="M5,6.81l0,0C4.91,6.88,4.94,6.87,5,6.81Z"/><polygon class="cls-1" points="12.7 14.03 12.72 14.02 12.72 14 12.7 14.03"/><path class="cls-1" d="M12.37,14.17c.41-.36.4-.28.36-.16l.8-1Z"/><path class="cls-1" d="M7.6,10.32l-.16.37c-.51.41-.44.18-.71.67.87-1,.42.16,1.29-.88l-.12.27s-.06,0-.07,0c-.3.59.7-.69.72-.43a.65.65,0,0,1-.24.4l.32-.17s-.14.22-.16.18l.24.05,0,0c.16-.14.42-.35.54-.44-.08.19-.11.09-.21.23l.3-.18c-.19.3-.48.5-.51.41-.78,1.12.3-.2,0,.57l-.2.06c-.44.64-.19.48-.4.93.14-.21.58-1.09.9-1.27,0,.1,0,.17.2,0-.31.37-.18.32-.1.36L8.76,12a4,4,0,0,0,.62-.52c0,.12-.26.51-.51.84.06.18.42-.68.65-.65-.05.28.19.14.56,0-.07.23-.27.29-.36.45l.4-.33s-.1.14-.15.2c.18-.1.42-.48.62-.54.48-.52-.49.93.14.42a5.78,5.78,0,0,1-.42.48,5.1,5.1,0,0,0,1-.61l-.17.41A3.65,3.65,0,0,1,12.19,11l.28-.46.36-.14a2.54,2.54,0,0,1-.41.43l.13-.09a2.84,2.84,0,0,1-.64.72l.21-.34a9,9,0,0,0-.84.85.45.45,0,0,1,.16-.09,1.56,1.56,0,0,0-.18.19c0,.05.07,0,.2-.14l-.44.57.19-.21-.12.49a7.08,7.08,0,0,1,1.8-1.18,11.32,11.32,0,0,0-1,1.1c.38-.54-.34.07-.35-.11,0,.1-.2.31-.28.38l.58-.29c-.34.38-.21.32-.3.52.63-.78.58-.38.85-.54-.22.26-.46.5-.5.36-.4.65.91-.77.58-.2,0,0,0-.06-.13.06.25-.18.22.11,0,.3h0c.07.22.44.4,1-.21l-.83.87,2.18-1.89a19.69,19.69,0,0,1-2,2.09c0,.11-.07.24.17.11a5.67,5.67,0,0,1,.73-.86,8.85,8.85,0,0,0-.59,1c.07-.15.88-1,.91-.88-.12.12-.75.84-.85.91l.89-.71a6.26,6.26,0,0,0-.83,1c.13-.18.11.12.22.08l.12-.25c0,.27,1.22-1,1.34-.84a6.08,6.08,0,0,0-1,1.19,21.72,21.72,0,0,1,2.48-2.09l-.2.27.36-.18c-.66.57-2.08,1.74-2.66,2.17-.12.25-.25.3-.14.36-.18.26-.36.3-.4.29l.07.33c.45-.5.61-.35,1-.77l-.69.31c.45-.5,1.42-1.29,1.49-1.06-.15.23-.84.85-1,1,.18-.15.44-.2.34-.06l-.31.21c-.09.26.74-.53.4,0,0,.06-.49.72-.22.44.47-.61,2.08-2.35,2.51-2.74a8.41,8.41,0,0,1-.55,1c-.36.49-1.06,1-1.37,1.39a2.7,2.7,0,0,1,.38-.31c-.07.15-.4.4-.27.41.48-.48.11.19.43-.39.21-.07,0,.18.09.24a5.64,5.64,0,0,1,1.32-1.09,4,4,0,0,0-.33.38c.11.19,0,.49.11.63a2,2,0,0,1-.4.53c.1-.07.28-.22.34-.19-.32.51-.16,0-.59.55A1.93,1.93,0,0,1,16.7,16c.41-.46-.06-.22-.29-.1a5.38,5.38,0,0,1,1.72-1.28c.26,0-.33.44-.22.38.12.32,1.22-.87,1-.26a9.19,9.19,0,0,1-1,1.06c-.24.05.09-.39,0-.43l-.1.26c-.16.1-.31.13-.24,0-.28.41.31.42.16.91a1.45,1.45,0,0,0,.47-.36h-.11c.25-.36.52-.33.59-.54.29-.15.7-.41.63-.13L18.9,16c.12-.13.19-.33,0-.22.23-.15-.43.74.18.22l.23-.37c.29-.15.84-.52.79-.29.39-.47-.07,0,.37-.54-.57.68-.21-.26-.77.49.51-.65.13-.36.54-.95-.14.15-.24.31-.25.16l-.14.11v0s0,0,0,0a1.56,1.56,0,0,1-.18.26c-.36.29-.47.16-.68.3,0-.11.18-.15.31-.33L19,15c.31-.33.4-.65.69-.73l-.08-.11c.12-.24.11-.38-.07-.3,0-.11-.46.25-.18,0L19,14l.08-.08c-.11-.19-.82.24-.43-.51-.13,0-.28.08-.27-.09l.25-.3c-.16,0,.07-.47-.24-.2.65-.83-.16-.47-.15-.71l-.35.37c-.06-.1-.24-.06-.47,0l-.3.33c-.34.19,0-.44-.17-.53.13-.12.13-.05.08,0,.53-.9-.84.23-.49-.45-.15.09-.14,0-.09-.08h0v0l.11-.22a1.57,1.57,0,0,0-.12.22.33.33,0,0,0-.23,0l.31-.37h0c.08-.17-.19.14-.41.43a1.71,1.71,0,0,0-.25.16c.49-.6-.29.09.23-.56-.3.27-.42,0-1,.64.07-.08.1-.13.12-.12s0-.23-.17-.09l.39-.47-.65.52a2.23,2.23,0,0,1,.68-.81c-.64.41-.31.09-.91.52l.27-.29c-.06,0-.48.3-.29,0,.4-.65-.44-.53-.24-1.29-.72.92.22-.5-.39.17a2,2,0,0,1,.43-.51c-.31.09.08-.51-.51,0,.17-.22.29-.28.39-.42-.05,0-.2.14-.11,0A.79.79,0,0,1,14.38,9c-.17-.09-.74.54-1.27,1.14.18-.35.11-.34-.29,0,.15-.22.28-.46.43-.46,0-.07,0-.55-.47-.07.09-.14,0-.09-.1,0-.08-.12-.06-.17-.2-.22l0,.1c-.54.55-.2.06-.35.05l.05-.06c.16-.59-.26.13,0-.52l-.3.38c-.68.77.22-.61-.15-.41l-.14.24c-.29.22.73-1.22.75-1.37s.11-.09.18-.13c.23-.61-.42.46-.64.47.19-.28.58-.64.54-.76.13-.25-.94.64-.64,0a1.61,1.61,0,0,1-.47.55c-.15,0,.39-1-.21-.39a1.08,1.08,0,0,1,.11-.17,2,2,0,0,0-.77.41c1-1.33-.93.28,0-.9l-.26-.11.1-.12c-.07-.19-.35.06-.62.31a.85.85,0,0,1,.2-.26c0-.4-.06-.36-.7.1l.29-.4c-.22.19.2-.83-.35-.53a1.08,1.08,0,0,1,.16-.16c-.57.28.33-1.49-.87-.13l-.42.24c.1.25-.51.6-.62.89-.14,0,.15-.57.29-.58l0,.08c.61-.72,0-.44.37-.94-.39-.25-.43-.94-.76-1.23l-.4.61L6.7,4.6c.07-.16.3-.49.37-.4.2-.36-.36.17-.45.29,0-.36.58-.63.54-.68H7l0,.08c-.24.2-.43.45-.51.34s.24-.39.23-.43,0-.07,0,0l-.12-.16-.28.51c-.24.18-.13-.13-.45.45.5-.89-.35-.72-.23-1-.35.27-.43.19-.52.07,0,.12-.41.65-.46.52.83-1.05.16-.6.65-1.44-.3.57-.38-.08-.8.74,0-.15.29-.41.41-.71-.5.27-.25-.59-.6-.63a2.83,2.83,0,0,1-.43.56l.38-.81c-.1,0-.63.8-.37.23-.07.13-.18.32-.25.35,0-1.05-1.4-.13-1-1.8-.13.33-.19.32-.25.3A4.23,4.23,0,0,1,2,1.45L2.18.76c-.41.52-.25-.12-.63.39l.13,0C1.17,1.66.87,2.55.31,3.34c.58-.63-.46,1.21.39.32-.08.19-.21.23-.31.43C.67,3.77.76,3.74.75,4L.68,4c.31.09.19.5.31.92l.25-.4c0,.09,0,.23-.09.34.48-.54-.15-.15.37-.76-.47.85.42.32-.16,1.25.09.07.29-.47.38-.4l-.15.26.24-.29a1.54,1.54,0,0,1-.3.62s-.08,0-.11,0c-.12.34.29.06.25.17l0-.21c.41,0,.49.49,1.09.18l.11-.19c.43-.2,0,.31.32.3l0,0c.17-.15.29-.2.33-.14-.21.17-.2.48-.44.67.46-.21.3-.21.93-.78L3.81,6c.24-.24.35-.38.51-.38-.27.19-.27.5-.61.77-.27.81.8-.42.19.6.71-.75.16-.59.34-.73.15-.3.54-.56.54-.42S4.12,6.93,4.3,7c0,0-.06,0-.08,0-.09.26.34-.19.16.21.42-.46.08.1.57-.52l-.27,0c.21-.1.85-.78.73-.31A2.64,2.64,0,0,1,5,6.81c-.1.22.18-.06.07.16-.49.62-.29,0-.75.41-.16.3.52-.32,0,.33.73-.82.08.24.7-.34l-.29.37c.06,0,.24-.2.26-.16L4.56,8c.41-.35-.1.5.16.34-.19-.13.31-.49.44-.82.61-.33-.62,1.09-.23,1.1-.07,0,0-.33.23-.46A1.43,1.43,0,0,1,5,8.7c.23.05.27-.41.52-.58-.3.5.23-.12.41-.21l-.29.38c0,.39.67-.76.61-.33l-.48.47.2-.07-.36.42c.35-.25.31-.14.31.06.19-.28.55-.68.65-.63-.12.27-.32.34-.15.38-.21.22-.48.49-.26.1L5.82,9c-.14.31.11.18.16.21a.17.17,0,0,1,0-.12l.59-.39a1.17,1.17,0,0,1-.31.36c.07,0,.23-.17.31-.16a3.29,3.29,0,0,1-.69.71l.43-.21A3.4,3.4,0,0,1,6,9.95c-.05.25.69-.42.63-.09a.52.52,0,0,1,.17-.12c.06.16-.14.61.33.3l-.36.61c.21,0,.45-.77.79-.84s-.33.5-.41.69c.28-.23.84-.7.6-.16C7.63,10.41,7.67,10.3,7.6,10.32Zm1.48.81c-.09.06-.34.26-.17,0C9.29,10.75,9.14,11,9.08,11.13Zm2.69.76c-.12.1-.1,0,0-.15C11.8,11.74,11.82,11.77,11.77,11.89Zm7.57,2.4h0C19.4,14.12,19.37,14.2,19.34,14.3Zm0,.26a.62.62,0,0,0,.15-.14c-.09.08-.12.06-.13,0C19.24,14.52,19.2,14.6,19.31,14.55ZM6.61,3.92,6.55,4C6.42,4.11,6.51,4,6.61,3.92Z"/><path class="cls-1" d="M11.12,12.2l.16-.21A.59.59,0,0,0,11.12,12.2Z"/><polygon class="cls-1" points="6.64 9.87 6.64 9.86 6.58 9.93 6.64 9.87"/><path class="cls-1" d="M14.77,15.88a.92.92,0,0,1,.13-.22C14.82,15.74,14.76,15.82,14.77,15.88Z"/><path class="cls-1" d="M20.46,14.55l-.16,0c.05,0,0,.1,0,.18C20.34,14.66,20.44,14.53,20.46,14.55Z"/><path class="cls-1" d="M19,17.26c.05,0,0,0,.08,0l.16-.16C19.14,17.05,19,17.15,19,17.26Z"/><path class="cls-1" d="M19.4,15.75c-.28.29-.14.24,0,.23h0C19.77,15.59,19.58,15.67,19.4,15.75Z"/><path class="cls-1" d="M19.38,16s.05,0,.05,0C19.6,15.87,19.45,16,19.38,16Z"/><path class="cls-1" d="M19.63,14.5c0,.1.38-.36.28-.22C20.3,13.93,19.32,14.56,19.63,14.5Z"/><polygon class="cls-1" points="18.5 16.74 18.84 16.36 18.52 16.62 18.5 16.74"/><path class="cls-1" d="M18.38,16.1l0,.18a.37.37,0,0,1,.14-.1C18.46,16.11,18.48,16,18.38,16.1Z"/><path class="cls-1" d="M18.5,16.17s0,0,.12,0A.14.14,0,0,0,18.5,16.17Z"/><polygon class="cls-1" points="18.29 16.74 18.34 16.64 18.31 16.56 18.29 16.74"/><path class="cls-1" d="M17.6,15.21l-.19,0c-.13.12-.18.21-.1.2A.8.8,0,0,0,17.6,15.21Z"/><path class="cls-1" d="M16.9,16.44a2.22,2.22,0,0,1,.23-.31l-.43.44Z"/><path class="cls-1" d="M16.56,16.31c-.13.12-.47.24-.33.31C16.35,16.51,16.54,16.49,16.56,16.31Z"/><polygon class="cls-1" points="15.81 14.51 15.84 14.53 16.53 13.78 15.81 14.51"/><path class="cls-1" d="M13,15.24c-.06.27.45-.44.34-.13.19-.16.09-.25.26-.38C13.37,14.86,13.43,14.72,13,15.24Z"/><path class="cls-1" d="M13.6,14.72l.14-.08Z"/><polygon class="cls-1" points="2.33 0.23 2.38 0 2.23 0.32 2.33 0.23"/><path class="cls-1" d="M1.76.75,2.11.2,1.73.66S1.83.62,1.76.75Z"/><path class="cls-1" d="M8.43,12.29l.11-.12c.1-.14.09-.16.08-.21Z"/><polygon class="cls-1" points="7.82 11.15 7.83 11.18 8.17 10.7 7.82 11.15"/><path class="cls-1" d="M6.57,11.1s.14,0,.15,0C6.59,11.15,7,10.53,6.57,11.1Z"/><path class="cls-1" d="M.17,21.91c-.06-.05-.14.36-.17.43C.14,22.28.19,21.8.17,21.91Z"/><polygon class="cls-1" points="1.57 21.29 1.51 21.45 1.78 21.09 1.57 21.29"/><path class="cls-1" d="M2.65,21.59c.08-.72-.42,0-.55-.29v-.17l-.23.53C2.14,21.64,2.54,21.35,2.65,21.59Z"/><path class="cls-1" d="M2.83,23.23c0-.28.19-.2-.11-.12v.07A.23.23,0,0,1,2.83,23.23Z"/><path class="cls-1" d="M2.73,23.19c-.12,0,0,.24,0,0Z"/><path class="cls-1" d="M3.29,23.17l-.21.2c0,.17.11.24,0,.34C3.3,23.62,3.31,23.46,3.29,23.17Z"/><path class="cls-1" d="M3.57,22.71l-.11.08C3.46,22.86,3.48,22.89,3.57,22.71Z"/><path class="cls-1" d="M3.24,23l.22-.17c0-.12.07-.34-.1.06C3.44,22.65,3.35,22.83,3.24,23Z"/><path class="cls-1" d="M3.18,22.83c0-.17-.13-.3.09-.49C3,22.35,2.87,22.85,3.18,22.83Z"/><path class="cls-1" d="M2.9,20.89l-.06-.23-.16.21C2.76,20.76,2.85,21.11,2.9,20.89Z"/><path class="cls-1" d="M4.13,23.78c0-.14.06-.4.1-.59l-.16.14A.75.75,0,0,1,4.13,23.78Z"/><path class="cls-1" d="M4.22,23.19,4.46,23C4.32,22.91,4.26,23,4.22,23.19Z"/><polygon class="cls-1" points="3.8 21.95 3.39 22.41 3.86 21.96 3.8 21.95"/><polygon class="cls-1" points="4.75 23.97 4.57 24.29 4.87 23.82 4.75 23.97"/><path class="cls-1" d="M5.19,24c-.15.26,0,.5-.16.65.13,0,.29-.23.44-.43C5.34,24.35,5.25,24.3,5.19,24Z"/><path class="cls-1" d="M5.7,24a2,2,0,0,0-.23.27A1,1,0,0,0,5.7,24Z"/><path class="cls-1" d="M4.72,23.13a.92.92,0,0,0,0,.45l0-.43Z"/><path class="cls-1" d="M4.79,23.14h0l.13.06Z"/><path class="cls-1" d="M4.7,23.13h0S4.73,23.07,4.7,23.13Z"/><path class="cls-1" d="M4.14,22.44c.16-.2.43-.4.33-.8C4.32,21.9,4.38,22.14,4.14,22.44Z"/><path class="cls-1" d="M4.77,22.59l-.15-.14a1,1,0,0,1-.12.38Z"/><polygon class="cls-1" points="4.89 22.48 4.76 22.59 4.82 22.64 4.89 22.48"/><path class="cls-1" d="M5.51,23.52a.33.33,0,0,1,.31-.15.5.5,0,0,0-.27-.21C5.51,23.28,5.4,23.5,5.51,23.52Z"/><path class="cls-1" d="M5.17,23.3l0,0S5.18,23.23,5.17,23.3Z"/><path class="cls-1" d="M6.75,23.62v-.08l0,.07Z"/><path class="cls-1" d="M5.56,23.07c-.05-.1-.13,0-.2.1a.35.35,0,0,1,.2,0C5.58,23.1,5.59,23.06,5.56,23.07Z"/><path class="cls-1" d="M6,23.86a1.43,1.43,0,0,0-.07-.26C5.95,23.74,6,24,6,23.86Z"/><path class="cls-1" d="M5.18,23.4l0,0C5.17,23.51,5.18,23.47,5.18,23.4Z"/><path class="cls-1" d="M5.18,23.4a1.33,1.33,0,0,0,.17-.22.48.48,0,0,0-.16.1A1,1,0,0,1,5.18,23.4Z"/><path class="cls-1" d="M7.77,21.06c-.12.38-.42.67-.48.22a5.75,5.75,0,0,0-.54,2.27.82.82,0,0,1,.33-.49c0-.22-.25-.6,0-.9.29-.13.15.19.21.42,0-.5.49-.61.64-1.32l-.27.19C7.68,21.33,7.8,21.18,7.77,21.06Z"/><path class="cls-1" d="M6.43,23.41l-.08,0a1.38,1.38,0,0,1,.1.59.93.93,0,0,0,.28-.41l-.34-.15Z"/><path class="cls-1" d="M6,23.35c.17-.4.39-.53.41-1-.22,0-.24.31-.42.45.37,0-.16.2,0,.51a.39.39,0,0,1-.21.06,1,1,0,0,1,.12.24v0h0c0-.06,0-.09,0-.05H6L6,23.35c.07.11,0,.11-.06.15l0,.06h0l.4-.13C6.29,23.36,6.2,23.35,6,23.35Z"/><path class="cls-1" d="M4.89,20.8a.36.36,0,0,1,0,.1S4.93,20.82,4.89,20.8Z"/><path class="cls-1" d="M5,21.09c0,.05-.11.21-.18.15s.05-.2.09-.34a.46.46,0,0,0-.15.5l0-.05a1.75,1.75,0,0,1,.09.8A6.93,6.93,0,0,0,5,21.09Z"/><path class="cls-1" d="M5.54,22.12,5.88,22l0-.4-.05.22C5.64,21.68,5.6,22,5.54,22.12Z"/><polygon class="cls-1" points="6.72 23.84 6.56 24.27 6.9 23.69 6.72 23.84"/><polygon class="cls-1" points="7.1 23.89 6.98 24.27 7.14 24.06 7.1 23.89"/><path class="cls-1" d="M21.06,21.59l-.14-.08Z"/><path class="cls-1" d="M21.1,21.81l.24.13Z"/><path class="cls-1" d="M16.07,26.52c0,.39,0,1,.09.55l.09-.42C16.14,26.7,16.09,26.63,16.07,26.52Z"/><path class="cls-1" d="M22.85,26l-.16-.19.31.54Z"/><path class="cls-1" d="M21.2,23.58l.36.41Z"/><path class="cls-1" d="M20.16,20.11H19.7C19.75,20.28,19.95,20.14,20.16,20.11Z"/><path class="cls-1" d="M10.89,24.82a.54.54,0,0,0,.18.33C11,24.87,11,24.48,10.89,24.82Z"/><path class="cls-1" d="M26.47,24.08a.88.88,0,0,0-.32-.23A.76.76,0,0,0,26.47,24.08Z"/><path class="cls-1" d="M11.37,25.24s0-.07,0-.11a.27.27,0,0,1-.27,0C11.11,25.35,11.19,25.5,11.37,25.24Z"/><path class="cls-1" d="M18.24,7.72l0,0C18.23,7.69,18.23,7.7,18.24,7.72Z"/><path class="cls-1" d="M22.36,3.9a.18.18,0,0,1,0,.11S22.41,4,22.36,3.9Z"/><path class="cls-1" d="M8.52,24.49c-.09,0,0,0,0,0Z"/><path class="cls-1" d="M8.62,22.73a.65.65,0,0,0,.09-.19A.84.84,0,0,1,8.62,22.73Z"/><path class="cls-1" d="M12.92,22.88h0C12.93,22.8,12.93,22.81,12.92,22.88Z"/><path class="cls-1" d="M8.46,24.27a.46.46,0,0,0,.06.15A.5.5,0,0,0,8.46,24.27Z"/><path class="cls-1" d="M8.42,24.47l-.06-.06C8.33,24.48,8.33,24.52,8.42,24.47Z"/><path class="cls-1" d="M8.64,24.5a.17.17,0,0,1-.11-.08.11.11,0,0,1,0,.07Z"/><path class="cls-1" d="M20.94,13.9l0,0C20.78,13.83,20.82,13.85,20.94,13.9Z"/><path class="cls-1" d="M19.08,22.76v0Z"/><path class="cls-1" d="M19.23,22.46c-.08.54-.13.46-.15.33q-.05.64-.08,1.29Q19.15,23.28,19.23,22.46Z"/><path class="cls-1" d="M20.76,21h-.4a4.63,4.63,0,0,0-1.05-.15c.72.06.77.1.82.15s.1.09.87.3l-.31,0s-.08,0-.07,0c-.73-.16,1.14.4,1,.5a1.15,1.15,0,0,1-.53-.16l.43.28a.66.66,0,0,1-.29-.13l.18.23,0,0c.27.15.69.44.88.58-.23-.08-.19-.13-.39-.23l.44.36a2.64,2.64,0,0,1-.84-.59c-.83-.43-.73-.37-.53-.23s.5.37,0,.12l-.23-.2c-1-.59-.61-.33-1.23-.75.33.27,1.54,1,2,1.34-.12-.06-.18-.08.19.24-.63-.45-.47-.3-.42-.21l-.84-.65,1.07.91a9.51,9.51,0,0,1-1.29-1c-.13,0,1.06.85,1.23,1.11-.32-.19,0,.16.57.84-.3-.22-.53-.56-.78-.78l.7.78a4.5,4.5,0,0,1-.34-.35c.27.35.87.92,1.11,1.3s.29.36.19.26l-.5-.48c-.4-.39-.75-.75-.33-.2-.25-.27-.46-.56-.77-.93.07.1.13.18.19.26l.74,1.19L21.56,24a8.28,8.28,0,0,1,1.29,2c.28.34.54.64.67.79a2.18,2.18,0,0,1,0,.35,5.17,5.17,0,0,1-.5-.79l.08.19a6.88,6.88,0,0,1-.85-1.3l.46.57a18.68,18.68,0,0,0-1-1.6.71.71,0,0,1,.1.21c-.09-.14-.17-.27-.23-.35s0,.09.16.3l-.69-1,.25.38q-.31-.34-.58-.66c.45.9,1,2.18.67,2.39a16.5,16.5,0,0,0-.77-1.8c.46.84.06-.27.25-.07a2.77,2.77,0,0,1-.35-.61,4,4,0,0,1,.15.68,3.55,3.55,0,0,0-.43-.76c.57,1.24.16.75.17,1.08-.14-.4-.25-.8-.1-.66-.42-.93.29,1.33-.11.52,0,0,.07.07,0-.13,0,.32-.26,0-.28-.33h0c-.23-.2-.56-.19-.65.67l.05-1.24a8.65,8.65,0,0,1-.76,2.76,21.2,21.2,0,0,1,.52-2.86c0-.12,0-.25-.18,0a5.63,5.63,0,0,1-.2,1.12c0-.84,0-.46,0-1.18,0,.17-.39,1.24-.53,1.16.07-.16.33-1.08.42-1.18l-.67,1a3.42,3.42,0,0,0,.33-1.23c0,.22-.28-.11-.4,0l.06.29c-.32-.28-.85,1.39-1.2,1.22.11-.21.54-1.33.39-1.52a13.41,13.41,0,0,1-1.67,2.84l0-.33-.36.28a31.64,31.64,0,0,1,1.85-3c-.06-.29.08-.38-.14-.42a.4.4,0,0,1,.32-.41L16.73,21c-.18.65-.58.53-.72,1.07l.74-.5c-.18.65-.87,1.72-1.19,1.51A7.8,7.8,0,0,1,16,21.73c-.11.21-.46.32-.44.15l.25-.3c-.12-.3-.58.75-.62.07-.07-.07,0-.9-.12-.53a20.6,20.6,0,0,1-1,3.57,6.09,6.09,0,0,1-.18-1.22c0-.62.62-1.31.65-1.84a1.58,1.58,0,0,1-.25.43c0-.18.2-.53,0-.51-.23.64-.36-.17-.25.52-.24.13-.15-.19-.37-.23a3.35,3.35,0,0,1-.86,1.51,2.21,2.21,0,0,0,.1-.5c-.35-.17-.46-.52-.8-.63,0-.17-.09-.41.06-.67-.08.1-.19.31-.3.29,0-.63.26,0,.31-.74-.13.38-.43.44-.65.64-.13.6.31.22.53,0a3.41,3.41,0,0,1-1.22,1.85c-.34.12,0-.56-.05-.46-.49-.3-.87,1.28-1.14.57A5.18,5.18,0,0,1,10,22.34c.29-.13.26.43.42.46l-.12-.3c.12-.15.32-.23.36-.06,0-.51-.87-.35-1.16-.9-.12.15-.3.3-.3.52l.15,0c0,.45-.41.51-.3.75-.26.24-.59.65-.76.34l.12-.6c0,.17.06.4.18.24-.18.23-.15-.91-.48-.17l.06.46c-.26.25-.65.81-.82.56-.07.61.07-.05,0,.67.11-.89.54.19.58-.76-.07.84.18.41.19,1.15,0-.2,0-.39.19-.25a1.48,1.48,0,0,1,.09-.16v0s0,0,0,0a1,1,0,0,1,0-.32c.22-.42.5-.32.67-.53.08.12-.11.21-.11.43l.25-.3c-.11.43.08.8-.25,1l.22.09c.06.28.22.43.39.28.08.12.41-.4.22-.09l.44-.16,0,.11c.34.16.94-.5,1.11.4.15-.07.31-.17.48,0l-.07.38c.19-.08.34.51.53.14-.14,1.05.67.44.88.7l.16-.48c.18.08.39,0,.68-.12l.12-.43c.31-.29.41.46.74.51-.07.16-.14.09-.16,0,.07,1.08,1-.46,1.12.35.13-.13.18-.06.2.07l0,0,0,0c0,.09,0,.18,0,.26a1.05,1.05,0,0,0,0-.26.51.51,0,0,0,.31-.09l-.1.47h0c0,.2.14-.19.2-.56a1.19,1.19,0,0,0,.21-.24c-.16.77.33-.17.19.65.19-.36.58-.14.89-.93,0,.11,0,.17-.07.16s.23.28.41.08l-.08.62a7.25,7.25,0,0,0,.48-.71,1.07,1.07,0,0,1-.08,1.09c.59-.57.46-.14.88-.76l0,.41c.15,0,.34-.46.44-.09s.61.62,1.09.8a4.5,4.5,0,0,1,1.66,1c-.82-1.51.72.79.23-.33.22.36.45.61.45.86.29-.19,1.08.83.82-.06.28.39.22.5.4.74,0-.07,0-.27.15,0a.45.45,0,0,1,.13.41c.52.13-.19-1-.88-2.09.55.58.64.56.26-.12.32.39.74.81.55.85.17.1,1.38.87.66,0,.23.25.26.14.21,0l0,0c.19,0,.26,0,.34-.11l-.16-.11c-.39-.5-.39-.54-.3-.5s.12.08.17.09,0,0,0-.13l.08.09c.55,0-.27-.51.35-.43l-.49-.44c-1.06-1,.6.12.16-.58l-.27-.13c-.39-.46,1.42.74,1.54.62s.16.18.23.3c.61,0-.67-.58-.85-1.06.36.19.92.76,1,.54.3,0-1.25-1.53-.58-1.43a1.51,1.51,0,0,1-.8-.47c-.14-.27,1-.17,0-.84a.61.61,0,0,1,.22.05,3.78,3.78,0,0,0-1.08-1.11c.91.21.6-.22.27-.56s-.65-.63.18-.53L25.23,21l.17,0c0-.45-.46-.59-.87-.68.08-.1.24-.06.32-.06.06-.33.08-.49,0-.63a1.23,1.23,0,0,0-.76-.29l.47-.16c-.31,0,.61-.74,0-1a.75.75,0,0,1,.23,0C24.08,17.82,26,17,24.15,17l-.47-.27c-.11.42-.79,0-1.07.2-.12-.16.51-.47.62-.27l-.09,0c.94,0,.29-.53.94-.57-.1-.8.38-1.68.3-2.58l-.71.19v-.3c.16-.1.55-.19.55,0,.39-.17-.4-.31-.56-.29.22-.46.87,0,.87-.1L24.44,13l-.08.05c-.32-.09-.63-.05-.64-.31s.43-.17.44-.23.07,0,0-.1l0-.38-.53.27c-.31-.1,0-.34-.65,0,.94-.46,0-1.38.3-1.59-.46-.1-.51-.3-.53-.57-.1.1-.71.31-.7.07,1.31-.28.45-.55,1.33-1-.58.32-.32-.56-1.13-.08.06-.21.48-.14.75-.36-.62-.29.08-1-.2-1.44a1.7,1.7,0,0,1-.7.12l.8-.45c-.1-.07-1,.12-.45-.18-.14.05-.35.13-.42.08.32-.57.09-1,0-1.47s-.1-1,.75-1.28c-.36.07-.38,0-.38-.09a3.1,3.1,0,0,1-.67-.07q.36-.15.7-.26c-.64-.19,0-.36-.57-.55l.08.14c-.69-.35-1.67-.13-2.61-.32.38.2.06.3-.23.45s-.55.36,0,.61c-.2.08-.3-.1-.53-.07.4.14.48.27.29.49l-.1,0c.08.66-.31.95-.51,1.73l.47-.1c0,.16-.19.21-.3.3.73.09,0-.44.8-.36-1,.32.12,1-.93,1.36,0,.23.53-.17.56.06l-.28.12.39,0c0,.16-.38.31-.63.37,0,0-.09-.09-.12-.13-.31.28.23.52.14.61l.13-.26c.4.55.21,1.36.95,1.75l.2-.1c.51.31-.15.39.16.79h-.06c.24,0,.38.12.39.25-.28,0-.43.34-.75.28.55.31.39.12,1.28.19l-.34.16c.35,0,.52,0,.67.17-.35-.1-.51.28-1,.19-.67.65,1,.47-.14.95,1,0,.46-.51.7-.45.3-.18.79,0,.72.16s-1.23.53-1.14.87c0,0-.08,0-.08-.06-.23.18.4.19,0,.42.63,0,0,.2.78.11l-.23-.29c.23.14,1.18.18.78.56a1.92,1.92,0,0,1-.51-.11c-.22.12.18.15,0,.27-.79.08-.23-.36-.86-.46-.32.14.63.26-.24.3,1.1,0-.09.33.76.47l-.47,0c.08,0,.31.08.3.15l-.62-.06c.54.14-.42.4-.12.56,0-.39.56-.13.89-.33.67.45-1.21.37-.95.92-.07-.07.26-.31.49-.2a1.12,1.12,0,0,1-.51.36c.12.38.48-.09.79.06-.57.17.25.18.44.34l-.48,0c-.28.48,1,0,.67.49l-.68-.13.19.21h-.55c.43.21.33.29.2.56.33-.09.87-.05.91.16-.27.18-.47,0-.36.27-.31,0-.69-.07-.27-.26-.16,0-.31,0-.46,0-.31.2,0,.43,0,.55A.2.2,0,0,1,20,18l.73.38a.57.57,0,0,1-.47,0c.07.09.3.12.36.25-.39,0-.79.11-1-.07l.51.39c-.16.06-.42.32-.57.29-.17.31.87.46.65.83a.36.36,0,0,1,.23.07c0,.4-.47.47.11.54q-.34.08-.69.13c.18.05.87-.17,1.18,0s-.61.06-.8.09c.37,0,1.18.21.6.24C20.72,21.07,20.83,21.06,20.76,21Zm.69,1.31c-.14-.12-.54-.41-.18-.2C22,22.62,21.65,22.44,21.46,22.34Zm.21,2.31c-.1-.2,0-.08.22.18C21.88,24.86,21.82,24.83,21.66,24.64ZM9.48,24.36v0C9.57,24.56,9.54,24.47,9.48,24.36Zm-.2-.28a.36.36,0,0,0-.07.19c.05-.11.11-.1.17-.05C9.39,24.1,9.38,24,9.28,24.08ZM24,12.47l-.11.08C23.71,12.45,23.84,12.46,24,12.47Z"/><path class="cls-1" d="M21.4,23.86l.27.36A2.81,2.81,0,0,0,21.4,23.86Z"/><path class="cls-1" d="M20.25,20.11h0Z"/><path class="cls-1" d="M14.53,21.38a.6.6,0,0,1,0,.27C14.6,21.54,14.6,21.43,14.53,21.38Z"/><path class="cls-1" d="M7.66,24.47l.2-.07c-.09,0-.09-.11-.11-.2C7.73,24.31,7.71,24.48,7.66,24.47Z"/><path class="cls-1" d="M7,21.18c0,.05-.05,0-.09,0l-.05.22A.17.17,0,0,0,7,21.18Z"/><path class="cls-1" d="M7.94,22.89c.1-.39,0-.29-.18-.25h0C7.59,23.17,7.77,23,7.94,22.89Z"/><path class="cls-1" d="M7.73,22.64a.12.12,0,0,1-.11,0C7.54,22.83,7.65,22.67,7.73,22.64Z"/><path class="cls-1" d="M8.87,24.25c0-.12-.18.49-.16.32C8.5,25,9.25,24.07,8.87,24.25Z"/><polygon class="cls-1" points="8.21 21.57 8.12 22.07 8.29 21.7 8.21 21.57"/><path class="cls-1" d="M9,22.19,8.9,22a.24.24,0,0,1-.1.15C8.91,22.21,9,22.34,9,22.19Z"/><path class="cls-1" d="M8.8,22.16a.13.13,0,0,0-.18,0A.25.25,0,0,0,8.8,22.16Z"/><polygon class="cls-1" points="8.51 21.5 8.54 21.62 8.66 21.69 8.51 21.5"/><path class="cls-1" d="M11.05,22.88l.25-.08c.07-.16,0-.28-.05-.23S11.07,22.71,11.05,22.88Z"/><path class="cls-1" d="M10.82,21.38a1.29,1.29,0,0,1,0,.39l.18-.59Z"/><path class="cls-1" d="M11.46,21.42c.07-.16.44-.38.17-.43C11.56,21.15,11.31,21.23,11.46,21.42Z"/><polygon class="cls-1" points="14.35 23.11 14.29 23.1 14 24.07 14.35 23.11"/><path class="cls-1" d="M17.82,21.63c-.17-.31-.25.58-.38.22-.13.21.11.29,0,.47C17.65,22.13,17.68,22.29,17.82,21.63Z"/><path class="cls-1" d="M17.42,22.33l-.12.12A.53.53,0,0,0,17.42,22.33Z"/><polygon class="cls-1" points="22.97 3.57 23.2 3.52 22.85 3.51 22.97 3.57"/><path class="cls-1" d="M22.29,3.18l.63.14-.55-.23S22.43,3.19,22.29,3.18Z"/><path class="cls-1" d="M19.78,21.25l.21.16c.22.16.24.17.27.18Z"/><polygon class="cls-1" points="20.3 21.25 20.29 21.25 20.97 21.48 20.3 21.25"/><path class="cls-1" d="M19.41,20.89h.09C19.39,20.9,20.16,20.86,19.41,20.89Z"/></g></g></svg>