<svg xmlns="http://www.w3.org/2000/svg" viewBox="0 0 1457 1231"><defs><style>.cls-1{fill:#b3b3b3;}.cls-2{fill:#a5a5a5;}.cls-3{fill:gray;}.cls-4{fill:#777776;}.cls-10,.cls-11,.cls-12,.cls-13,.cls-14,.cls-15,.cls-31,.cls-5,.cls-8,.cls-9{fill:#4d4d4d;}.cls-6{fill:#ccc;}.cls-7{fill:#e6e6e6;}.cls-8{font-size:32px;}.cls-10,.cls-11,.cls-12,.cls-13,.cls-14,.cls-15,.cls-31,.cls-8,.cls-9{font-family:MyriadHebrew-Regular, Myriad Hebrew;}.cls-9{font-size:21.04px;}.cls-10{font-size:35px;}.cls-11{font-size:28.24px;}.cls-12{font-size:22.85px;}.cls-13{font-size:24.63px;}.cls-14{font-size:33px;}.cls-15{font-size:42px;}.cls-16{fill:#999;}.cls-17,.cls-24,.cls-26{fill:none;stroke-miterlimit:10;}.cls-17{stroke:gray;}.cls-17,.cls-24{stroke-width:2px;}.cls-18{fill:#666;}.cls-19{fill:#c4c02d;}.cls-20{fill:#545454;}.cls-21{fill:#f7931e;}.cls-22{fill:#d37211;}.cls-23{fill:#8e8e8e;}.cls-24{stroke:#93860a;}.cls-25{fill:#7a7a7a;}.cls-26{stroke:#c6b45c;}.cls-27{fill:#707070;}.cls-28{fill:#c1ac2f;}.cls-29{fill:#7f7f7e;}.cls-30{fill:#b2ab28;}.cls-31{font-size:37.36px;}</style></defs><title>constration</title><g id="Layer_9" data-name="Layer 9"><rect class="cls-1" x="333" y="795" width="321" height="202.3"/><rect class="cls-2" x="494" y="795" width="160" height="202.3"/><rect class="cls-3" x="348" y="814.27" width="291" height="163.77"/><polygon class="cls-4" points="639 814.27 639 977.2 349.27 814.27 639 814.27"/><ellipse class="cls-5" cx="494.5" cy="806.08" rx="5.5" ry="5.3"/><polygon class="cls-1" points="606 1189 285 1189 333 1000.19 654 1000.19 606 1189"/><polygon class="cls-2" points="489.68 1171.76 414 1171.76 425.32 1127.24 501 1127.24 489.68 1171.76"/><path class="cls-6" d="M358.5,1031.44H342a1,1,0,0,1-1-1.13l2.47-16.12a1,1,0,0,1,1-.84H361a1,1,0,0,1,1,1.13l-2.47,16.12A1,1,0,0,1,358.5,1031.44Z"/><path class="cls-6" d="M378.5,1031.44H362a1,1,0,0,1-1-1.13l2.47-16.12a1,1,0,0,1,1-.84H381a1,1,0,0,1,1,1.13l-2.47,16.12A1,1,0,0,1,378.5,1031.44Z"/><path class="cls-6" d="M398.5,1031.44H382a1,1,0,0,1-1-1.13l2.47-16.12a1,1,0,0,1,1-.84H401a1,1,0,0,1,1,1.13l-2.47,16.12A1,1,0,0,1,398.5,1031.44Z"/><path class="cls-6" d="M418.5,1031.44H402a1,1,0,0,1-1-1.13l2.47-16.12a1,1,0,0,1,1-.84H421a1,1,0,0,1,1,1.13l-2.47,16.12A1,1,0,0,1,418.5,1031.44Z"/><path class="cls-6" d="M438.5,1031.44H422a1,1,0,0,1-1-1.13l2.47-16.12a1,1,0,0,1,1-.84H441a1,1,0,0,1,1,1.13l-2.47,16.12A1,1,0,0,1,438.5,1031.44Z"/><path class="cls-6" d="M458.5,1031.44H442a1,1,0,0,1-1-1.13l2.47-16.12a1,1,0,0,1,1-.84H461a1,1,0,0,1,1,1.13l-2.47,16.12A1,1,0,0,1,458.5,1031.44Z"/><path class="cls-6" d="M478.5,1031.44H462a1,1,0,0,1-1-1.13l2.47-16.12a1,1,0,0,1,1-.84H481a1,1,0,0,1,1,1.13l-2.47,16.12A1,1,0,0,1,478.5,1031.44Z"/><path class="cls-6" d="M498.5,1031.44H482a1,1,0,0,1-1-1.13l2.47-16.12a1,1,0,0,1,1-.84H501a1,1,0,0,1,1,1.13l-2.47,16.12A1,1,0,0,1,498.5,1031.44Z"/><path class="cls-6" d="M518.5,1031.44H502a1,1,0,0,1-1-1.13l2.47-16.12a1,1,0,0,1,1-.84H521a1,1,0,0,1,1,1.13l-2.47,16.12A1,1,0,0,1,518.5,1031.44Z"/><path class="cls-6" d="M538.5,1031.44H522a1,1,0,0,1-1-1.13l2.47-16.12a1,1,0,0,1,1-.84H541a1,1,0,0,1,1,1.13l-2.47,16.12A1,1,0,0,1,538.5,1031.44Z"/><path class="cls-6" d="M558.5,1031.44H542a1,1,0,0,1-1-1.13l2.47-16.12a1,1,0,0,1,1-.84H561a1,1,0,0,1,1,1.13l-2.47,16.12A1,1,0,0,1,558.5,1031.44Z"/><path class="cls-6" d="M578.5,1031.44H562a1,1,0,0,1-1-1.13l2.47-16.12a1,1,0,0,1,1-.84H581a1,1,0,0,1,1,1.13l-2.47,16.12A1,1,0,0,1,578.5,1031.44Z"/><path class="cls-6" d="M598.5,1031.44H582a1,1,0,0,1-1-1.13l2.47-16.12a1,1,0,0,1,1-.84H601a1,1,0,0,1,1,1.13l-2.47,16.12A1,1,0,0,1,598.5,1031.44Z"/><path class="cls-6" d="M618.5,1031.44H602a1,1,0,0,1-1-1.13l2.47-16.12a1,1,0,0,1,1-.84H621a1,1,0,0,1,1,1.13l-2.47,16.12A1,1,0,0,1,618.5,1031.44Z"/><path class="cls-6" d="M355.5,1051.67H339a1,1,0,0,1-1-1.13l2.47-16.12a1,1,0,0,1,1-.84H358a1,1,0,0,1,1,1.13l-2.47,16.12A1,1,0,0,1,355.5,1051.67Z"/><path class="cls-6" d="M375.5,1051.67H359a1,1,0,0,1-1-1.13l2.47-16.12a1,1,0,0,1,1-.84H378a1,1,0,0,1,1,1.13l-2.47,16.12A1,1,0,0,1,375.5,1051.67Z"/><path class="cls-6" d="M395.5,1051.67H379a1,1,0,0,1-1-1.13l2.47-16.12a1,1,0,0,1,1-.84H398a1,1,0,0,1,1,1.13l-2.47,16.12A1,1,0,0,1,395.5,1051.67Z"/><path class="cls-6" d="M415.5,1051.67H399a1,1,0,0,1-1-1.13l2.47-16.12a1,1,0,0,1,1-.84H418a1,1,0,0,1,1,1.13l-2.47,16.12A1,1,0,0,1,415.5,1051.67Z"/><path class="cls-6" d="M435.5,1051.67H419a1,1,0,0,1-1-1.13l2.47-16.12a1,1,0,0,1,1-.84H438a1,1,0,0,1,1,1.13l-2.47,16.12A1,1,0,0,1,435.5,1051.67Z"/><path class="cls-6" d="M455.5,1051.67H439a1,1,0,0,1-1-1.13l2.47-16.12a1,1,0,0,1,1-.84H458a1,1,0,0,1,1,1.13l-2.47,16.12A1,1,0,0,1,455.5,1051.67Z"/><path class="cls-6" d="M475.5,1051.67H459a1,1,0,0,1-1-1.13l2.47-16.12a1,1,0,0,1,1-.84H478a1,1,0,0,1,1,1.13l-2.47,16.12A1,1,0,0,1,475.5,1051.67Z"/><path class="cls-6" d="M495.5,1051.67H479a1,1,0,0,1-1-1.13l2.47-16.12a1,1,0,0,1,1-.84H498a1,1,0,0,1,1,1.13l-2.47,16.12A1,1,0,0,1,495.5,1051.67Z"/><path class="cls-6" d="M515.5,1051.67H499a1,1,0,0,1-1-1.13l2.47-16.12a1,1,0,0,1,1-.84H518a1,1,0,0,1,1,1.13l-2.47,16.12A1,1,0,0,1,515.5,1051.67Z"/><path class="cls-6" d="M535.5,1051.67H519a1,1,0,0,1-1-1.13l2.47-16.12a1,1,0,0,1,1-.84H538a1,1,0,0,1,1,1.13l-2.47,16.12A1,1,0,0,1,535.5,1051.67Z"/><path class="cls-6" d="M555.5,1051.67H539a1,1,0,0,1-1-1.13l2.47-16.12a1,1,0,0,1,1-.84H558a1,1,0,0,1,1,1.13l-2.47,16.12A1,1,0,0,1,555.5,1051.67Z"/><path class="cls-6" d="M575.5,1051.67H559a1,1,0,0,1-1-1.13l2.47-16.12a1,1,0,0,1,1-.84H578a1,1,0,0,1,1,1.13l-2.47,16.12A1,1,0,0,1,575.5,1051.67Z"/><path class="cls-6" d="M595.5,1051.67H579a1,1,0,0,1-1-1.13l2.47-16.12a1,1,0,0,1,1-.84H598a1,1,0,0,1,1,1.13l-2.47,16.12A1,1,0,0,1,595.5,1051.67Z"/><path class="cls-6" d="M615.5,1051.67H599a1,1,0,0,1-1-1.13l2.47-16.12a1,1,0,0,1,1-.84H618a1,1,0,0,1,1,1.13l-2.47,16.12A1,1,0,0,1,615.5,1051.67Z"/><path class="cls-6" d="M352.5,1071.9H336a1,1,0,0,1-1-1.13l2.47-16.12a1,1,0,0,1,1-.84H355a1,1,0,0,1,1,1.13l-2.47,16.12A1,1,0,0,1,352.5,1071.9Z"/><path class="cls-6" d="M372.5,1071.9H356a1,1,0,0,1-1-1.13l2.47-16.12a1,1,0,0,1,1-.84H375a1,1,0,0,1,1,1.13l-2.47,16.12A1,1,0,0,1,372.5,1071.9Z"/><path class="cls-6" d="M392.5,1071.9H376a1,1,0,0,1-1-1.13l2.47-16.12a1,1,0,0,1,1-.84H395a1,1,0,0,1,1,1.13l-2.47,16.12A1,1,0,0,1,392.5,1071.9Z"/><path class="cls-6" d="M412.5,1071.9H396a1,1,0,0,1-1-1.13l2.47-16.12a1,1,0,0,1,1-.84H415a1,1,0,0,1,1,1.13l-2.47,16.12A1,1,0,0,1,412.5,1071.9Z"/><path class="cls-6" d="M432.5,1071.9H416a1,1,0,0,1-1-1.13l2.47-16.12a1,1,0,0,1,1-.84H435a1,1,0,0,1,1,1.13l-2.47,16.12A1,1,0,0,1,432.5,1071.9Z"/><path class="cls-6" d="M452.5,1071.9H436a1,1,0,0,1-1-1.13l2.47-16.12a1,1,0,0,1,1-.84H455a1,1,0,0,1,1,1.13l-2.47,16.12A1,1,0,0,1,452.5,1071.9Z"/><path class="cls-6" d="M472.5,1071.9H456a1,1,0,0,1-1-1.13l2.47-16.12a1,1,0,0,1,1-.84H475a1,1,0,0,1,1,1.13l-2.47,16.12A1,1,0,0,1,472.5,1071.9Z"/><path class="cls-6" d="M492.5,1071.9H476a1,1,0,0,1-1-1.13l2.47-16.12a1,1,0,0,1,1-.84H495a1,1,0,0,1,1,1.13l-2.47,16.12A1,1,0,0,1,492.5,1071.9Z"/><path class="cls-6" d="M512.5,1071.9H496a1,1,0,0,1-1-1.13l2.47-16.12a1,1,0,0,1,1-.84H515a1,1,0,0,1,1,1.13l-2.47,16.12A1,1,0,0,1,512.5,1071.9Z"/><path class="cls-6" d="M532.5,1071.9H516a1,1,0,0,1-1-1.13l2.47-16.12a1,1,0,0,1,1-.84H535a1,1,0,0,1,1,1.13l-2.47,16.12A1,1,0,0,1,532.5,1071.9Z"/><path class="cls-6" d="M552.5,1071.9H536a1,1,0,0,1-1-1.13l2.47-16.12a1,1,0,0,1,1-.84H555a1,1,0,0,1,1,1.13l-2.47,16.12A1,1,0,0,1,552.5,1071.9Z"/><path class="cls-6" d="M572.5,1071.9H556a1,1,0,0,1-1-1.13l2.47-16.12a1,1,0,0,1,1-.84H575a1,1,0,0,1,1,1.13l-2.47,16.12A1,1,0,0,1,572.5,1071.9Z"/><path class="cls-6" d="M592.5,1071.9H576a1,1,0,0,1-1-1.13l2.47-16.12a1,1,0,0,1,1-.84H595a1,1,0,0,1,1,1.13l-2.47,16.12A1,1,0,0,1,592.5,1071.9Z"/><path class="cls-6" d="M612.5,1071.9H596a1,1,0,0,1-1-1.13l2.47-16.12a1,1,0,0,1,1-.84H615a1,1,0,0,1,1,1.13l-2.47,16.12A1,1,0,0,1,612.5,1071.9Z"/><path class="cls-6" d="M349.5,1092.13H333a1,1,0,0,1-1-1.13l2.47-16.12a1,1,0,0,1,1-.84H352a1,1,0,0,1,1,1.13l-2.47,16.12A1,1,0,0,1,349.5,1092.13Z"/><path class="cls-6" d="M369.5,1092.13H353a1,1,0,0,1-1-1.13l2.47-16.12a1,1,0,0,1,1-.84H372a1,1,0,0,1,1,1.13l-2.47,16.12A1,1,0,0,1,369.5,1092.13Z"/><path class="cls-6" d="M389.5,1092.13H373a1,1,0,0,1-1-1.13l2.47-16.12a1,1,0,0,1,1-.84H392a1,1,0,0,1,1,1.13l-2.47,16.12A1,1,0,0,1,389.5,1092.13Z"/><path class="cls-6" d="M409.5,1092.13H393a1,1,0,0,1-1-1.13l2.47-16.12a1,1,0,0,1,1-.84H412a1,1,0,0,1,1,1.13l-2.47,16.12A1,1,0,0,1,409.5,1092.13Z"/><path class="cls-6" d="M429.5,1092.13H413a1,1,0,0,1-1-1.13l2.47-16.12a1,1,0,0,1,1-.84H432a1,1,0,0,1,1,1.13l-2.47,16.12A1,1,0,0,1,429.5,1092.13Z"/><path class="cls-6" d="M449.5,1092.13H433a1,1,0,0,1-1-1.13l2.47-16.12a1,1,0,0,1,1-.84H452a1,1,0,0,1,1,1.13l-2.47,16.12A1,1,0,0,1,449.5,1092.13Z"/><path class="cls-6" d="M469.5,1092.13H453a1,1,0,0,1-1-1.13l2.47-16.12a1,1,0,0,1,1-.84H472a1,1,0,0,1,1,1.13l-2.47,16.12A1,1,0,0,1,469.5,1092.13Z"/><path class="cls-6" d="M489.5,1092.13H473a1,1,0,0,1-1-1.13l2.47-16.12a1,1,0,0,1,1-.84H492a1,1,0,0,1,1,1.13l-2.47,16.12A1,1,0,0,1,489.5,1092.13Z"/><path class="cls-6" d="M509.5,1092.13H493a1,1,0,0,1-1-1.13l2.47-16.12a1,1,0,0,1,1-.84H512a1,1,0,0,1,1,1.13l-2.47,16.12A1,1,0,0,1,509.5,1092.13Z"/><path class="cls-6" d="M529.5,1092.13H513a1,1,0,0,1-1-1.13l2.47-16.12a1,1,0,0,1,1-.84H532a1,1,0,0,1,1,1.13l-2.47,16.12A1,1,0,0,1,529.5,1092.13Z"/><path class="cls-6" d="M549.5,1092.13H533a1,1,0,0,1-1-1.13l2.47-16.12a1,1,0,0,1,1-.84H552a1,1,0,0,1,1,1.13l-2.47,16.12A1,1,0,0,1,549.5,1092.13Z"/><path class="cls-6" d="M569.5,1092.13H553a1,1,0,0,1-1-1.13l2.47-16.12a1,1,0,0,1,1-.84H572a1,1,0,0,1,1,1.13l-2.47,16.12A1,1,0,0,1,569.5,1092.13Z"/><path class="cls-6" d="M589.5,1092.13H573a1,1,0,0,1-1-1.13l2.47-16.12a1,1,0,0,1,1-.84H592a1,1,0,0,1,1,1.13l-2.47,16.12A1,1,0,0,1,589.5,1092.13Z"/><path class="cls-6" d="M609.5,1092.13H593a1,1,0,0,1-1-1.13l2.47-16.12a1,1,0,0,1,1-.84H612a1,1,0,0,1,1,1.13l-2.47,16.12A1,1,0,0,1,609.5,1092.13Z"/><path class="cls-6" d="M346.5,1112.36H330a1,1,0,0,1-1-1.13l2.47-16.12a1,1,0,0,1,1-.84H349a1,1,0,0,1,1,1.13l-2.47,16.12A1,1,0,0,1,346.5,1112.36Z"/><path class="cls-6" d="M366.5,1112.36H350a1,1,0,0,1-1-1.13l2.47-16.12a1,1,0,0,1,1-.84H369a1,1,0,0,1,1,1.13l-2.47,16.12A1,1,0,0,1,366.5,1112.36Z"/><path class="cls-6" d="M386.5,1112.36H370a1,1,0,0,1-1-1.13l2.47-16.12a1,1,0,0,1,1-.84H389a1,1,0,0,1,1,1.13l-2.47,16.12A1,1,0,0,1,386.5,1112.36Z"/><path class="cls-6" d="M406.5,1112.36H390a1,1,0,0,1-1-1.13l2.47-16.12a1,1,0,0,1,1-.84H409a1,1,0,0,1,1,1.13l-2.47,16.12A1,1,0,0,1,406.5,1112.36Z"/><path class="cls-6" d="M426.5,1112.36H410a1,1,0,0,1-1-1.13l2.47-16.12a1,1,0,0,1,1-.84H429a1,1,0,0,1,1,1.13l-2.47,16.12A1,1,0,0,1,426.5,1112.36Z"/><path class="cls-6" d="M446.5,1112.36H430a1,1,0,0,1-1-1.13l2.47-16.12a1,1,0,0,1,1-.84H449a1,1,0,0,1,1,1.13l-2.47,16.12A1,1,0,0,1,446.5,1112.36Z"/><path class="cls-6" d="M466.5,1112.36H450a1,1,0,0,1-1-1.13l2.47-16.12a1,1,0,0,1,1-.84H469a1,1,0,0,1,1,1.13l-2.47,16.12A1,1,0,0,1,466.5,1112.36Z"/><path class="cls-6" d="M486.5,1112.36H470a1,1,0,0,1-1-1.13l2.47-16.12a1,1,0,0,1,1-.84H489a1,1,0,0,1,1,1.13l-2.47,16.12A1,1,0,0,1,486.5,1112.36Z"/><path class="cls-6" d="M506.5,1112.36H490a1,1,0,0,1-1-1.13l2.47-16.12a1,1,0,0,1,1-.84H509a1,1,0,0,1,1,1.13l-2.47,16.12A1,1,0,0,1,506.5,1112.36Z"/><path class="cls-6" d="M526.5,1112.36H510a1,1,0,0,1-1-1.13l2.47-16.12a1,1,0,0,1,1-.84H529a1,1,0,0,1,1,1.13l-2.47,16.12A1,1,0,0,1,526.5,1112.36Z"/><path class="cls-6" d="M546.5,1112.36H530a1,1,0,0,1-1-1.13l2.47-16.12a1,1,0,0,1,1-.84H549a1,1,0,0,1,1,1.13l-2.47,16.12A1,1,0,0,1,546.5,1112.36Z"/><path class="cls-6" d="M566.5,1112.36H550a1,1,0,0,1-1-1.13l2.47-16.12a1,1,0,0,1,1-.84H569a1,1,0,0,1,1,1.13l-2.47,16.12A1,1,0,0,1,566.5,1112.36Z"/><path class="cls-6" d="M586.5,1112.36H570a1,1,0,0,1-1-1.13l2.47-16.12a1,1,0,0,1,1-.84H589a1,1,0,0,1,1,1.13l-2.47,16.12A1,1,0,0,1,586.5,1112.36Z"/><path class="cls-6" d="M606.5,1112.36H590a1,1,0,0,1-1-1.13l2.47-16.12a1,1,0,0,1,1-.84H609a1,1,0,0,1,1,1.13l-2.47,16.12A1,1,0,0,1,606.5,1112.36Z"/></g><g id="Layer_5" data-name="Layer 5"><path class="cls-6" d="M1036.84,704.14l-52.06,42.92a5.57,5.57,0,0,1-1.25.78L921,776a5.57,5.57,0,0,1-7-2.14l-14.62-23.56a5.57,5.57,0,0,1,1.1-7.15l51.7-44.58a5.57,5.57,0,0,1,1.47-.91l62.9-26.53a5.57,5.57,0,0,1,6.9,2.19L1038,696.9A5.57,5.57,0,0,1,1036.84,704.14Z"/><path class="cls-7" d="M1033.25,702.69l-49.32,39.88a5.65,5.65,0,0,1-1.18.73l-58.55,27a5,5,0,0,1-6.41-1.7L905,748.08a5,5,0,0,1,1.23-6.41l49-41.34a5.65,5.65,0,0,1,1.39-.86l58.82-25.59a5,5,0,0,1,6.29,1.75l12.77,20.58A5,5,0,0,1,1033.25,702.69Z"/><text class="cls-8" transform="matrix(0.87, -0.5, 0.5, 0.87, 928.05, 754.93)">&lt;body&gt;</text><path class="cls-6" d="M1019.87,984.08,953,975.46a5.57,5.57,0,0,1-1.43-.38l-63.33-26.35a5.57,5.57,0,0,1-3.24-6.58l7.19-26.78a5.57,5.57,0,0,1,6-4.09L966,918.49a5.57,5.57,0,0,1,1.67.45L1030,946.68a5.57,5.57,0,0,1,3.12,6.53L1026,980A5.57,5.57,0,0,1,1019.87,984.08Z"/><path class="cls-7" d="M1018.47,980.47l-62.83-8.71a5.65,5.65,0,0,1-1.34-.36l-59.77-24.21a5,5,0,0,1-3.15-5.83L897.65,918a5,5,0,0,1,5.52-3.49l63.71,7.5a5.65,5.65,0,0,1,1.57.42l58.9,25.41a5,5,0,0,1,3,5.79L1024.1,977A5,5,0,0,1,1018.47,980.47Z"/><text class="cls-8" transform="matrix(0.96, 0.29, -0.29, 0.96, 908.41, 939.46)">&lt;body&gt;</text><path class="cls-6" d="M1315.66,871l-65.82,14.84a5.57,5.57,0,0,1-1.47.13l-68.53-3a5.57,5.57,0,0,1-5.3-5.08l-2.43-27.62a5.57,5.57,0,0,1,4.2-5.89l66.24-16.48a5.57,5.57,0,0,1,1.73-.15l68.1,4.68a5.57,5.57,0,0,1,5.17,5.07l2.43,27.63A5.57,5.57,0,0,1,1315.66,871Z"/><path class="cls-7" d="M1313.11,868.12l-62,13.36a5.65,5.65,0,0,1-1.39.12l-64.45-2.25a5,5,0,0,1-5-4.4l-2.12-24.11a5,5,0,0,1,4-5.17l62.42-14.79a5.65,5.65,0,0,1,1.62-.14l64,3.68a5,5,0,0,1,4.83,4.4l2.12,24.12A5,5,0,0,1,1313.11,868.12Z"/><text class="cls-8" transform="translate(1195.66 867.32) rotate(-2.98)">&lt;body&gt;</text><path class="cls-6" d="M1028,817.15l-43.53-8.58a3.66,3.66,0,0,1-.92-.31L943.18,788.2a3.66,3.66,0,0,1-1.84-4.46l5.89-17.26a3.66,3.66,0,0,1,4.09-2.43l44.23,7.71a3.66,3.66,0,0,1,1.08.37l39.72,20.93a3.66,3.66,0,0,1,1.76,4.42l-5.89,17.26A3.66,3.66,0,0,1,1028,817.15Z"/><path class="cls-7" d="M1027.27,814.72l-40.85-8.46a3.71,3.71,0,0,1-.87-.29l-38.16-18.5a3.29,3.29,0,0,1-1.81-4l5.14-15.07a3.28,3.28,0,0,1,3.77-2L996,774.09a3.71,3.71,0,0,1,1,.35l37.54,19.25a3.28,3.28,0,0,1,1.74,3.93l-5.14,15.07A3.29,3.29,0,0,1,1027.27,814.72Z"/><text class="cls-9" transform="translate(956.85 783) rotate(20.88)">&lt;body&gt;</text><path class="cls-6" d="M963,814.15l-43.53-8.58a3.66,3.66,0,0,1-.92-.31L878.18,785.2a3.66,3.66,0,0,1-1.84-4.46l5.89-17.26a3.66,3.66,0,0,1,4.09-2.43l44.23,7.71a3.66,3.66,0,0,1,1.08.37l39.72,20.93a3.66,3.66,0,0,1,1.76,4.42l-5.89,17.26A3.66,3.66,0,0,1,963,814.15Z"/><path class="cls-7" d="M962.27,811.72l-40.85-8.46a3.71,3.71,0,0,1-.87-.29l-38.16-18.5a3.29,3.29,0,0,1-1.81-4l5.14-15.07a3.28,3.28,0,0,1,3.77-2L931,771.09a3.71,3.71,0,0,1,1,.35l37.54,19.25a3.28,3.28,0,0,1,1.74,3.93l-5.14,15.07A3.29,3.29,0,0,1,962.27,811.72Z"/><text class="cls-9" transform="translate(891.85 780) rotate(20.88)">&lt;body&gt;</text><path class="cls-6" d="M1407.38,1016.35l-67.45,1.69a5.57,5.57,0,0,1-1.47-.16l-66.61-16.38a5.57,5.57,0,0,1-4.21-6l3-27.56a5.57,5.57,0,0,1,5.27-5l68.19-3.21a5.57,5.57,0,0,1,1.72.19l65.87,17.9a5.57,5.57,0,0,1,4.08,6l-3,27.57A5.57,5.57,0,0,1,1407.38,1016.35Z"/><path class="cls-7" d="M1405.44,1013l-63.42,1a5.65,5.65,0,0,1-1.38-.15L1277.87,999a5,5,0,0,1-4-5.29l2.64-24.06a5,5,0,0,1,4.92-4.29l64.1-2.3a5.65,5.65,0,0,1,1.62.18l62.08,16.13a5,5,0,0,1,3.88,5.26l-2.64,24.07A5,5,0,0,1,1405.44,1013Z"/><text class="cls-8" transform="translate(1290.42 989.26) rotate(8.29)">&lt;body&gt;</text><path class="cls-6" d="M556.64,578.75,501,540.64a5.57,5.57,0,0,1-1.1-1l-44.42-52.27a5.57,5.57,0,0,1,.11-7.34l18.58-20.58a5.57,5.57,0,0,1,7.18-.93l57.17,37.31a5.57,5.57,0,0,1,1.29,1.16l42.93,53.07a5.57,5.57,0,0,1-.2,7.23l-18.59,20.59A5.57,5.57,0,0,1,556.64,578.75Z"/><path class="cls-7" d="M557,574.9l-52-36.33a5.65,5.65,0,0,1-1-.93l-42.22-48.75a5,5,0,0,1-.15-6.63l16.22-18a5,5,0,0,1,6.5-.6l53.32,35.65a5.65,5.65,0,0,1,1.21,1.09l40.9,49.42a5,5,0,0,1,.07,6.53l-16.23,18A5,5,0,0,1,557,574.9Z"/><text class="cls-10" transform="matrix(0.72, 0.7, -0.7, 0.72, 489.78, 503.03)">&lt;ul&gt;</text><path class="cls-6" d="M501.69,703l17.66-65.12a5.57,5.57,0,0,1,.57-1.36l34.73-59.15a5.57,5.57,0,0,1,7-2.31l25.55,10.77a5.57,5.57,0,0,1,3.24,6.47L574,658.52a5.57,5.57,0,0,1-.67,1.6l-36,58a5.57,5.57,0,0,1-6.89,2.2L504.9,709.55A5.57,5.57,0,0,1,501.69,703Z"/><path class="cls-7" d="M505.46,702.07,522.64,641a5.65,5.65,0,0,1,.54-1.28l32.13-55.92a5,5,0,0,1,6.21-2.32l22.31,9.4a5,5,0,0,1,2.71,5.94l-16.11,62.09a5.65,5.65,0,0,1-.63,1.5l-33.2,54.89a5,5,0,0,1-6.14,2.21l-22.32-9.41A5,5,0,0,1,505.46,702.07Z"/><text class="cls-10" transform="translate(548.84 619.92) rotate(114.9)">&lt;li&gt;</text><path class="cls-6" d="M1444.94,954.58l-54.43.87a4.49,4.49,0,0,1-1.18-.14l-53.62-13.71a4.49,4.49,0,0,1-3.35-4.88L1335,914.5a4.49,4.49,0,0,1,4.29-4l55-2.09a4.49,4.49,0,0,1,1.39.16l53,14.92a4.49,4.49,0,0,1,3.24,4.85l-2.64,22.22A4.49,4.49,0,0,1,1444.94,954.58Z"/><path class="cls-7" d="M1443.4,951.86l-51.17.32a4.56,4.56,0,0,1-1.11-.13l-50.53-12.41a4,4,0,0,1-3.19-4.29l2.3-19.39a4,4,0,0,1,4-3.43l51.73-1.39a4.55,4.55,0,0,1,1.31.16l50,13.47a4,4,0,0,1,3.09,4.27l-2.3,19.4A4,4,0,0,1,1443.4,951.86Z"/><text class="cls-11" transform="translate(1365.61 935.9) rotate(8.81)">&lt;ul&gt;</text><path class="cls-6" d="M1129.94,993.58l-54.43.87a4.49,4.49,0,0,1-1.18-.14l-53.62-13.71a4.49,4.49,0,0,1-3.35-4.88L1020,953.5a4.49,4.49,0,0,1,4.29-4l55-2.09a4.49,4.49,0,0,1,1.39.16l53,14.92a4.49,4.49,0,0,1,3.24,4.85l-2.64,22.22A4.49,4.49,0,0,1,1129.94,993.58Z"/><path class="cls-7" d="M1128.4,990.86l-51.17.32a4.56,4.56,0,0,1-1.11-.13l-50.53-12.41a4,4,0,0,1-3.19-4.29l2.3-19.39a4,4,0,0,1,4-3.43l51.73-1.39a4.55,4.55,0,0,1,1.31.16l50,13.47a4,4,0,0,1,3.09,4.27l-2.3,19.4A4,4,0,0,1,1128.4,990.86Z"/><text class="cls-11" transform="translate(1050.61 974.9) rotate(8.81)">&lt;ul&gt;</text><path class="cls-6" d="M1398.58,918l-67.46,1.07a5.57,5.57,0,0,1-1.47-.17l-66.46-17a5.57,5.57,0,0,1-4.15-6.05l3.27-27.53a5.57,5.57,0,0,1,5.32-4.91l68.21-2.59a5.57,5.57,0,0,1,1.72.2l65.71,18.5a5.57,5.57,0,0,1,4,6L1404,913.09A5.57,5.57,0,0,1,1398.58,918Z"/><path class="cls-7" d="M1396.67,914.63l-63.43.4a5.65,5.65,0,0,1-1.38-.16l-62.63-15.38a5,5,0,0,1-4-5.32l2.85-24a5,5,0,0,1,5-4.25l64.12-1.72a5.65,5.65,0,0,1,1.62.19L1400.78,881a5,5,0,0,1,3.83,5.29l-2.86,24A5,5,0,0,1,1396.67,914.63Z"/><text class="cls-10" transform="translate(1300.26 894.85) rotate(8.81)">&lt;ul&gt;</text><path class="cls-6" d="M1138.18,1033.7l-63.28,23.4a5.57,5.57,0,0,1-1.44.32l-68.33,6a5.57,5.57,0,0,1-5.92-4.33l-6.05-27.06a5.57,5.57,0,0,1,3.39-6.39l63.49-25.08a5.57,5.57,0,0,1,1.69-.38l68.12-4.36a5.57,5.57,0,0,1,5.79,4.34l6.05,27.07A5.57,5.57,0,0,1,1138.18,1033.7Z"/><path class="cls-7" d="M1135.26,1031.15l-59.7,21.43a5.65,5.65,0,0,1-1.36.3l-64.18,6.28a5,5,0,0,1-5.49-3.71l-5.28-23.62a5,5,0,0,1,3.27-5.65l59.92-22.9a5.65,5.65,0,0,1,1.59-.36l64-4.81a5,5,0,0,1,5.37,3.72l5.29,23.63A5,5,0,0,1,1135.26,1031.15Z"/><text class="cls-10" transform="matrix(0.98, -0.18, 0.18, 0.98, 1037.75, 1044.49)">&lt;ul&gt;</text><path class="cls-6" d="M1263.18,922.7l-63.28,23.4a5.57,5.57,0,0,1-1.44.32l-68.33,6a5.57,5.57,0,0,1-5.92-4.33l-6.05-27.06a5.57,5.57,0,0,1,3.39-6.39L1185,889.59a5.57,5.57,0,0,1,1.69-.38l68.12-4.36a5.57,5.57,0,0,1,5.79,4.34l6.05,27.07A5.57,5.57,0,0,1,1263.18,922.7Z"/><path class="cls-7" d="M1260.26,920.15l-59.7,21.43a5.65,5.65,0,0,1-1.36.3L1135,948.16a5,5,0,0,1-5.49-3.71l-5.28-23.62a5,5,0,0,1,3.27-5.65l59.92-22.9a5.65,5.65,0,0,1,1.59-.36l64-4.81a5,5,0,0,1,5.37,3.72l5.29,23.63A5,5,0,0,1,1260.26,920.15Z"/><text class="cls-10" transform="matrix(0.98, -0.18, 0.18, 0.98, 1162.75, 933.49)">&lt;ul&gt;</text><path class="cls-6" d="M1432.18,882.7l-63.28,23.4a5.57,5.57,0,0,1-1.44.32l-68.33,6a5.57,5.57,0,0,1-5.92-4.33l-6.05-27.06a5.57,5.57,0,0,1,3.39-6.39L1354,849.59a5.57,5.57,0,0,1,1.69-.38l68.12-4.36a5.57,5.57,0,0,1,5.79,4.34l6.05,27.07A5.57,5.57,0,0,1,1432.18,882.7Z"/><path class="cls-7" d="M1429.26,880.15l-59.7,21.43a5.65,5.65,0,0,1-1.36.3L1304,908.16a5,5,0,0,1-5.49-3.71l-5.28-23.62a5,5,0,0,1,3.27-5.65l59.92-22.9a5.65,5.65,0,0,1,1.59-.36l64-4.81a5,5,0,0,1,5.37,3.72l5.29,23.63A5,5,0,0,1,1429.26,880.15Z"/><text class="cls-10" transform="matrix(0.98, -0.18, 0.18, 0.98, 1331.75, 893.49)">&lt;ul&gt;</text><path class="cls-6" d="M1235.18,881.7l-63.28,23.4a5.57,5.57,0,0,1-1.44.32l-68.33,6a5.57,5.57,0,0,1-5.92-4.33l-6.05-27.06a5.57,5.57,0,0,1,3.39-6.39L1157,848.59a5.57,5.57,0,0,1,1.69-.38l68.12-4.36a5.57,5.57,0,0,1,5.79,4.34l6.05,27.07A5.57,5.57,0,0,1,1235.18,881.7Z"/><path class="cls-7" d="M1232.26,879.15l-59.7,21.43a5.65,5.65,0,0,1-1.36.3L1107,907.16a5,5,0,0,1-5.49-3.71l-5.28-23.62a5,5,0,0,1,3.27-5.65l59.92-22.9a5.65,5.65,0,0,1,1.59-.36l64-4.81a5,5,0,0,1,5.37,3.72l5.29,23.63A5,5,0,0,1,1232.26,879.15Z"/><text class="cls-10" transform="matrix(0.98, -0.18, 0.18, 0.98, 1134.75, 892.49)">&lt;ul&gt;</text><path class="cls-6" d="M1042.31,822.85,980,848.77a5.57,5.57,0,0,1-1.43.38l-68,8.77a5.57,5.57,0,0,1-6.09-4.09L897.33,827a5.57,5.57,0,0,1,3.13-6.53l62.43-27.61a5.57,5.57,0,0,1,1.67-.45l67.89-7.09a5.57,5.57,0,0,1,6,4.11l7.14,26.8A5.57,5.57,0,0,1,1042.31,822.85Z"/><path class="cls-7" d="M1039.3,820.42l-58.79,23.8a5.65,5.65,0,0,1-1.34.36l-63.88,8.85a5,5,0,0,1-5.64-3.49l-6.23-23.39a5,5,0,0,1,3-5.78l58.95-25.29a5.65,5.65,0,0,1,1.58-.42l63.72-7.37a5,5,0,0,1,5.51,3.5l6.23,23.4A5,5,0,0,1,1039.3,820.42Z"/><text class="cls-10" transform="translate(942.39 837.66) rotate(-12.87)">&lt;ul&gt;</text><path class="cls-6" d="M523.57,864.53,507.38,799a5.57,5.57,0,0,1-.16-1.47L508.85,729a5.57,5.57,0,0,1,5-5.4l27.56-3a5.57,5.57,0,0,1,6,4.08l17.84,65.89a5.57,5.57,0,0,1,.19,1.72l-3.27,68.18a5.57,5.57,0,0,1-5,5.27l-27.57,3A5.57,5.57,0,0,1,523.57,864.53Z"/><path class="cls-7" d="M526.42,861.92,511.79,800.2a5.65,5.65,0,0,1-.15-1.38l.93-64.48a5,5,0,0,1,4.3-5l24.07-2.61a5,5,0,0,1,5.25,3.88l16.07,62.1a5.65,5.65,0,0,1,.18,1.62l-2.36,64.1a5,5,0,0,1-4.3,4.92l-24.08,2.62A5,5,0,0,1,526.42,861.92Z"/><text class="cls-10" transform="translate(523.7 758.65) rotate(85.84)">&lt;h3&gt;</text><path class="cls-6" d="M913.42,961.36l-43.83-4.43a3.64,3.64,0,0,1-.94-.22l-41.81-16.07a3.64,3.64,0,0,1-2.23-4.24l4.21-17.6a3.64,3.64,0,0,1,3.82-2.78l44.43,3.5a3.64,3.64,0,0,1,1.1.26l41.2,17a3.64,3.64,0,0,1,2.15,4.21l-4.21,17.61A3.64,3.64,0,0,1,913.42,961.36Z"/><path class="cls-7" d="M912.44,959l-41.16-4.56a3.69,3.69,0,0,1-.88-.21l-39.45-14.73a3.27,3.27,0,0,1-2.16-3.75l3.68-15.37A3.26,3.26,0,0,1,836,918l41.71,3.76a3.69,3.69,0,0,1,1,.25l38.89,15.53a3.26,3.26,0,0,1,2.08,3.72l-3.68,15.38A3.26,3.26,0,0,1,912.44,959Z"/><text class="cls-12" transform="translate(848.35 938.02) rotate(15.5)">&lt;h3&gt;</text><path class="cls-6" d="M1124.75,926.18l-45.06,15a3.92,3.92,0,0,1-1,.19l-48.2,2.64a3.92,3.92,0,0,1-4.06-3.19l-3.62-19.17a3.92,3.92,0,0,1,2.53-4.42l45.24-16.16a3.92,3.92,0,0,1,1.2-.23l48-1.47a3.92,3.92,0,0,1,4,3.19l3.62,19.18A3.92,3.92,0,0,1,1124.75,926.18Z"/><path class="cls-7" d="M1122.76,924.32,1080.27,938a4,4,0,0,1-1,.18L1034,941.09a3.52,3.52,0,0,1-3.78-2.74l-3.16-16.74a3.51,3.51,0,0,1,2.43-3.9L1072.18,903a4,4,0,0,1,1.13-.21l45.1-1.88a3.51,3.51,0,0,1,3.69,2.74l3.16,16.75A3.52,3.52,0,0,1,1122.76,924.32Z"/><text class="cls-13" transform="translate(1050.46 931.94) rotate(-8.66)">&lt;h3&gt;</text><path class="cls-6" d="M1331.75,936.18l-45.06,15a3.92,3.92,0,0,1-1,.19l-48.2,2.64a3.92,3.92,0,0,1-4.06-3.19l-3.62-19.17a3.92,3.92,0,0,1,2.53-4.42l45.24-16.16a3.92,3.92,0,0,1,1.2-.23l48-1.47a3.92,3.92,0,0,1,4,3.19l3.62,19.18A3.92,3.92,0,0,1,1331.75,936.18Z"/><path class="cls-7" d="M1329.76,934.32,1287.27,948a4,4,0,0,1-1,.18L1241,951.09a3.52,3.52,0,0,1-3.78-2.74l-3.16-16.74a3.51,3.51,0,0,1,2.43-3.9L1279.18,913a4,4,0,0,1,1.13-.21l45.1-1.88a3.51,3.51,0,0,1,3.69,2.74l3.16,16.75A3.52,3.52,0,0,1,1329.76,934.32Z"/><text class="cls-13" transform="translate(1257.46 941.94) rotate(-8.66)">&lt;h3&gt;</text><path class="cls-6" d="M1025.75,913.18l-45.06,15a3.92,3.92,0,0,1-1,.19L931.47,931a3.92,3.92,0,0,1-4.06-3.19l-3.62-19.17a3.92,3.92,0,0,1,2.53-4.42l45.24-16.16a3.92,3.92,0,0,1,1.2-.23l48-1.47a3.92,3.92,0,0,1,4,3.19l3.62,19.18A3.92,3.92,0,0,1,1025.75,913.18Z"/><path class="cls-7" d="M1023.76,911.32,981.27,925a4,4,0,0,1-1,.18L935,928.09a3.52,3.52,0,0,1-3.78-2.74l-3.16-16.74a3.51,3.51,0,0,1,2.43-3.9L973.18,890a4,4,0,0,1,1.13-.21l45.1-1.88a3.51,3.51,0,0,1,3.69,2.74l3.16,16.75A3.52,3.52,0,0,1,1023.76,911.32Z"/><text class="cls-13" transform="translate(951.46 918.94) rotate(-8.66)">&lt;h3&gt;</text><path class="cls-6" d="M1116.66,740.08l-64,21.28a5.57,5.57,0,0,1-1.45.28l-68.5,3.75a5.57,5.57,0,0,1-5.78-4.53l-5.15-27.24a5.57,5.57,0,0,1,3.6-6.28l64.29-23a5.57,5.57,0,0,1,1.7-.32l68.23-2.09a5.57,5.57,0,0,1,5.64,4.53l5.15,27.25A5.57,5.57,0,0,1,1116.66,740.08Z"/><path class="cls-7" d="M1113.83,737.43l-60.38,19.43a5.65,5.65,0,0,1-1.37.26l-64.36,4.14a5,5,0,0,1-5.37-3.89l-4.5-23.79a5,5,0,0,1,3.46-5.54l60.65-20.9a5.65,5.65,0,0,1,1.6-.3l64.09-2.68a5,5,0,0,1,5.24,3.9l4.5,23.8A5,5,0,0,1,1113.83,737.43Z"/><text class="cls-10" transform="translate(1011.1 748.25) rotate(-8.66)">&lt;h3&gt;</text><path class="cls-6" d="M1277.66,1038.08l-64,21.28a5.57,5.57,0,0,1-1.45.28l-68.5,3.75a5.57,5.57,0,0,1-5.78-4.53l-5.15-27.24a5.57,5.57,0,0,1,3.6-6.28l64.29-23a5.57,5.57,0,0,1,1.7-.32l68.23-2.09a5.57,5.57,0,0,1,5.64,4.53l5.15,27.25A5.57,5.57,0,0,1,1277.66,1038.08Z"/><path class="cls-7" d="M1274.83,1035.43l-60.38,19.43a5.65,5.65,0,0,1-1.37.26l-64.36,4.14a5,5,0,0,1-5.37-3.89l-4.5-23.79a5,5,0,0,1,3.46-5.54l60.65-20.9a5.65,5.65,0,0,1,1.6-.3l64.09-2.68a5,5,0,0,1,5.24,3.9l4.5,23.8A5,5,0,0,1,1274.83,1035.43Z"/><text class="cls-10" transform="translate(1172.1 1046.25) rotate(-8.66)">&lt;h3&gt;</text><path class="cls-6" d="M952.36,1018.2l-61.26,28.26a5.57,5.57,0,0,1-1.41.44L822,1058.23a5.57,5.57,0,0,1-6.24-3.86l-8.14-26.5a5.57,5.57,0,0,1,2.88-6.64l61.34-30a5.57,5.57,0,0,1,1.66-.51l67.58-9.65a5.57,5.57,0,0,1,6.11,3.88l8.15,26.51A5.57,5.57,0,0,1,952.36,1018.2Z"/><path class="cls-7" d="M949.25,1015.88l-57.85,26a5.65,5.65,0,0,1-1.33.41l-63.5,11.26a5,5,0,0,1-5.77-3.27l-7.11-23.14a5,5,0,0,1,2.82-5.89l57.95-27.51a5.65,5.65,0,0,1,1.56-.48l63.4-9.78a5,5,0,0,1,5.64,3.29l7.11,23.15A5,5,0,0,1,949.25,1015.88Z"/><text class="cls-10" transform="translate(838.83 1040.61) rotate(-15.04)">&lt;img&gt;</text><path class="cls-6" d="M1118.22,901.61l-67.32,4.51a5.57,5.57,0,0,1-1.47-.1l-67.24-13.58a5.57,5.57,0,0,1-4.45-5.83l1.86-27.66a5.57,5.57,0,0,1,5.06-5.17l68-6.06a5.57,5.57,0,0,1,1.73.12L1120.94,863a5.57,5.57,0,0,1,4.32,5.8l-1.86,27.67A5.57,5.57,0,0,1,1118.22,901.61Z"/><path class="cls-7" d="M1116.14,898.34,1052.82,902a5.65,5.65,0,0,1-1.39-.09L988.1,889.71a5,5,0,0,1-4.22-5.11l1.63-24.15a5,5,0,0,1,4.74-4.49l64-5a5.65,5.65,0,0,1,1.63.11l62.7,13.52a5,5,0,0,1,4.09,5.09L1121,893.84A5,5,0,0,1,1116.14,898.34Z"/><text class="cls-10" transform="translate(1004.17 881.98) rotate(5.9)">&lt;img&gt;</text><path class="cls-6" d="M1185.74,952l-47.25,48.16a5.57,5.57,0,0,1-1.17.91l-59.23,34.6a5.57,5.57,0,0,1-7.21-1.39l-17-21.89a5.57,5.57,0,0,1,.34-7.23l46.72-49.77a5.57,5.57,0,0,1,1.37-1.06l59.76-33a5.57,5.57,0,0,1,7.09,1.46l17,21.9A5.57,5.57,0,0,1,1185.74,952Z"/><path class="cls-7" d="M1182,950.9l-44.86,44.84a5.65,5.65,0,0,1-1.1.85l-55.38,33.06a5,5,0,0,1-6.55-1l-14.86-19.11a5,5,0,0,1,.55-6.51l44.42-46.27a5.65,5.65,0,0,1,1.29-1l55.8-31.63a5,5,0,0,1,6.44,1.08l14.86,19.12A5,5,0,0,1,1182,950.9Z"/><text class="cls-10" transform="matrix(0.81, -0.59, 0.59, 0.81, 1087.54, 1013.19)">&lt;img&gt;</text><path class="cls-6" d="M1330,840.15l-49.93-45.38a5.57,5.57,0,0,1-1-1.13l-36.84-57.87a5.57,5.57,0,0,1,1.11-7.25l21.22-17.84a5.57,5.57,0,0,1,7.24.06l51.51,44.79a5.57,5.57,0,0,1,1.11,1.33l35.26,58.45a5.57,5.57,0,0,1-1.19,7.14l-21.23,17.84A5.57,5.57,0,0,1,1330,840.15Z"/><path class="cls-7" d="M1330.95,836.39l-46.52-43.11a5.65,5.65,0,0,1-.9-1.06l-35.14-54.07a5,5,0,0,1,.76-6.58L1267.68,716a5,5,0,0,1,6.52.3l47.94,42.62a5.65,5.65,0,0,1,1,1.25l33.74,54.56a5,5,0,0,1-.83,6.48l-18.54,15.58A5,5,0,0,1,1330.95,836.39Z"/><text class="cls-10" transform="matrix(0.62, 0.79, -0.79, 0.62, 1265.1, 744.36)">&lt;img&gt;</text><path class="cls-6" d="M1007.7,893l-67.4-3.13a5.57,5.57,0,0,1-1.45-.26l-65.27-21.1a5.57,5.57,0,0,1-3.77-6.3l5-27.27a5.57,5.57,0,0,1,5.61-4.57L948.65,832a5.57,5.57,0,0,1,1.7.31l64.43,22.56a5.57,5.57,0,0,1,3.64,6.26l-5,27.28A5.57,5.57,0,0,1,1007.7,893Z"/><path class="cls-7" d="M1006,889.53,942.68,886a5.65,5.65,0,0,1-1.37-.25l-61.55-19.25a5,5,0,0,1-3.61-5.56l4.35-23.81a5,5,0,0,1,5.22-3.93l64.1,2.28a5.65,5.65,0,0,1,1.6.29l60.77,20.52a5,5,0,0,1,3.49,5.52l-4.35,23.82A5,5,0,0,1,1006,889.53Z"/><text class="cls-14" transform="translate(890.82 857.89) rotate(12.39)">&lt;aside&gt;</text><path class="cls-6" d="M1142.17,796.45,1077,813.72a5.57,5.57,0,0,1-1.47.19l-68.6-.5a5.57,5.57,0,0,1-5.48-4.88L998,781a5.57,5.57,0,0,1,4-6l65.59-18.93a5.57,5.57,0,0,1,1.72-.22l68.23,2.15a5.57,5.57,0,0,1,5.35,4.87l3.45,27.52A5.57,5.57,0,0,1,1142.17,796.45Z"/><path class="cls-7" d="M1139.51,793.64,1078,809.28a5.65,5.65,0,0,1-1.38.17l-64.49.14a5,5,0,0,1-5.12-4.22l-3-24a5,5,0,0,1,3.79-5.32l61.82-17.1a5.65,5.65,0,0,1,1.62-.2l64.13,1.3a5,5,0,0,1,5,4.21l3,24A5,5,0,0,1,1139.51,793.64Z"/><text class="cls-14" transform="translate(1020.14 798.09) rotate(-5.11)">&lt;aside&gt;</text><path class="cls-6" d="M937.17,809.45,872,826.72a5.57,5.57,0,0,1-1.47.19l-68.6-.5a5.57,5.57,0,0,1-5.48-4.88L793,794a5.57,5.57,0,0,1,4-6l65.59-18.93a5.57,5.57,0,0,1,1.72-.22L932.47,771a5.57,5.57,0,0,1,5.35,4.87l3.45,27.52A5.57,5.57,0,0,1,937.17,809.45Z"/><path class="cls-7" d="M934.51,806.64,873,822.28a5.65,5.65,0,0,1-1.38.17l-64.49.14a5,5,0,0,1-5.12-4.22l-3-24a5,5,0,0,1,3.79-5.32l61.82-17.1a5.65,5.65,0,0,1,1.62-.2l64.13,1.3a5,5,0,0,1,5,4.21l3,24A5,5,0,0,1,934.51,806.64Z"/><text class="cls-14" transform="translate(815.14 811.09) rotate(-5.11)">&lt;aside&gt;</text><path class="cls-6" d="M1224.13,965.81l-66.23-12.87a5.57,5.57,0,0,1-1.4-.47L1095,922.14a5.57,5.57,0,0,1-2.81-6.78L1101,889.1a5.57,5.57,0,0,1,6.22-3.7l67.28,11.54a5.57,5.57,0,0,1,1.64.55l60.48,31.66a5.57,5.57,0,0,1,2.69,6.72l-8.88,26.27A5.57,5.57,0,0,1,1224.13,965.81Z"/><path class="cls-7" d="M1223,962.12l-62.14-12.69a5.65,5.65,0,0,1-1.32-.44l-58.11-28a5,5,0,0,1-2.77-6l7.75-22.93a5,5,0,0,1,5.73-3.13l63.1,11.54a5.65,5.65,0,0,1,1.54.52l57.16,29.11a5,5,0,0,1,2.65,6L1228.8,959A5,5,0,0,1,1223,962.12Z"/><text class="cls-14" transform="matrix(0.94, 0.35, -0.35, 0.94, 1113.57, 914.12)">&lt;aside&gt;</text><path class="cls-6" d="M1235.23,782.34l-63.15,23.75a5.57,5.57,0,0,1-1.44.33l-68.3,6.41a5.57,5.57,0,0,1-5.95-4.3l-6.2-27a5.57,5.57,0,0,1,3.35-6.41l63.35-25.44a5.57,5.57,0,0,1,1.69-.39l68.1-4.74a5.57,5.57,0,0,1,5.81,4.31l6.21,27A5.57,5.57,0,0,1,1235.23,782.34Z"/><path class="cls-7" d="M1232.29,779.81l-59.58,21.76a5.65,5.65,0,0,1-1.36.31l-64.15,6.64a5,5,0,0,1-5.51-3.68l-5.42-23.59a5,5,0,0,1,3.24-5.67l59.79-23.24a5.65,5.65,0,0,1,1.59-.36l63.94-5.17a5,5,0,0,1,5.39,3.69l5.42,23.6A5,5,0,0,1,1232.29,779.81Z"/><text class="cls-14" transform="translate(1114.44 796.17) rotate(-10.89)">&lt;meta&gt;</text><path class="cls-6" d="M1307,856.49l-66.86-9.05a5.57,5.57,0,0,1-1.43-.39l-63.16-26.76a5.57,5.57,0,0,1-3.2-6.61l7.36-26.73a5.57,5.57,0,0,1,6-4.05l67.83,7.66a5.57,5.57,0,0,1,1.67.46l62.19,28.14a5.57,5.57,0,0,1,3.07,6.55l-7.36,26.74A5.57,5.57,0,0,1,1307,856.49Z"/><path class="cls-7" d="M1305.64,852.87l-62.77-9.11a5.65,5.65,0,0,1-1.34-.37l-59.62-24.59a5,5,0,0,1-3.11-5.85l6.43-23.34a5,5,0,0,1,5.54-3.46l63.66,7.91a5.65,5.65,0,0,1,1.57.43l58.73,25.79a5,5,0,0,1,3,5.81l-6.43,23.35A5,5,0,0,1,1305.64,852.87Z"/><text class="cls-14" transform="matrix(0.95, 0.3, -0.3, 0.95, 1194.14, 811.36)">&lt;meta&gt;</text><path class="cls-6" d="M891.55,866.81l-50,45.33a5.57,5.57,0,0,1-1.22.84l-61.14,31.11a5.57,5.57,0,0,1-7.11-1.81l-15.72-22.84a5.57,5.57,0,0,1,.76-7.2l49.53-47a5.57,5.57,0,0,1,1.43-1l61.57-29.47a5.57,5.57,0,0,1,7,1.87l15.72,22.85A5.57,5.57,0,0,1,891.55,866.81Z"/><path class="cls-7" d="M887.89,865.54,840.51,907.7a5.65,5.65,0,0,1-1.15.79l-57.2,29.79a5,5,0,0,1-6.48-1.39L762,916.94a5,5,0,0,1,.92-6.47l47-43.62a5.65,5.65,0,0,1,1.34-.92L868.8,837.6a5,5,0,0,1,6.37,1.45l13.73,20A5,5,0,0,1,887.89,865.54Z"/><text class="cls-15" transform="translate(787.62 928.17) rotate(-34.53)">&lt;div&gt;</text><path class="cls-6" d="M1187.13,837.59,1126.91,868a5.57,5.57,0,0,1-1.4.49l-67.21,13.74a5.57,5.57,0,0,1-6.38-3.63l-9.08-26.2a5.57,5.57,0,0,1,2.64-6.74l60.23-32.12a5.57,5.57,0,0,1,1.64-.57l67.19-12.05a5.57,5.57,0,0,1,6.24,3.66l9.08,26.2A5.57,5.57,0,0,1,1187.13,837.59Z"/><path class="cls-7" d="M1183.94,835.39l-56.88,28.06a5.65,5.65,0,0,1-1.31.46l-63.06,13.52a5,5,0,0,1-5.88-3.06l-7.93-22.87a5,5,0,0,1,2.61-6l56.93-29.55a5.65,5.65,0,0,1,1.54-.53l63-12a5,5,0,0,1,5.75,3.09l7.93,22.88A5,5,0,0,1,1183.94,835.39Z"/><text class="cls-15" transform="translate(1070.63 869.12) rotate(-19.12)">&lt;div&gt;</text><path class="cls-6" d="M886.13,983.59,825.91,1014a5.57,5.57,0,0,1-1.4.49l-67.21,13.74a5.57,5.57,0,0,1-6.38-3.63l-9.08-26.2a5.57,5.57,0,0,1,2.64-6.74l60.23-32.12a5.57,5.57,0,0,1,1.64-.57l67.19-12.05a5.57,5.57,0,0,1,6.24,3.66l9.08,26.2A5.57,5.57,0,0,1,886.13,983.59Z"/><path class="cls-7" d="M882.94,981.39l-56.88,28.06a5.65,5.65,0,0,1-1.31.46l-63.06,13.52a5,5,0,0,1-5.88-3.06l-7.93-22.87a5,5,0,0,1,2.61-6l56.93-29.55a5.65,5.65,0,0,1,1.54-.53l63-12a5,5,0,0,1,5.75,3.09l7.93,22.88A5,5,0,0,1,882.94,981.39Z"/><text class="cls-15" transform="translate(769.63 1015.12) rotate(-19.12)">&lt;div&gt;</text><path class="cls-6" d="M965.31,905.53,905.09,936a5.57,5.57,0,0,1-1.4.49l-67.21,13.74a5.57,5.57,0,0,1-6.38-3.63L821,920.36a5.57,5.57,0,0,1,2.64-6.74L883.9,881.5a5.57,5.57,0,0,1,1.64-.57l67.19-12.05a5.57,5.57,0,0,1,6.24,3.66l9.08,26.2A5.57,5.57,0,0,1,965.31,905.53Z"/><path class="cls-7" d="M962.12,903.34l-56.88,28.06a5.65,5.65,0,0,1-1.31.46l-63.06,13.52A5,5,0,0,1,835,942.3l-7.93-22.87a5,5,0,0,1,2.61-6l56.93-29.55a5.65,5.65,0,0,1,1.54-.53l63-12a5,5,0,0,1,5.75,3.09l7.93,22.88A5,5,0,0,1,962.12,903.34Z"/><text class="cls-15" transform="translate(848.81 937.07) rotate(-19.12)">&lt;div&gt;</text><path class="cls-6" d="M1345.9,976.26l-64.09,21.09a5.57,5.57,0,0,1-1.45.27l-68.51,3.55a5.57,5.57,0,0,1-5.76-4.54L1201,969.38a5.57,5.57,0,0,1,3.62-6.27L1269,940.34a5.57,5.57,0,0,1,1.7-.32l68.24-1.89a5.57,5.57,0,0,1,5.63,4.55l5.07,27.27A5.57,5.57,0,0,1,1345.9,976.26Z"/><path class="cls-7" d="M1343.08,973.61l-60.43,19.25a5.65,5.65,0,0,1-1.37.26l-64.37,4a5,5,0,0,1-5.36-3.91l-4.43-23.8a5,5,0,0,1,3.47-5.53l60.71-20.72a5.65,5.65,0,0,1,1.6-.3l64.1-2.49a5,5,0,0,1,5.23,3.91l4.43,23.81A5,5,0,0,1,1343.08,973.61Z"/><text class="cls-15" transform="translate(1226 990.05) rotate(-10.54)">&lt;div&gt;</text><path class="cls-6" d="M1415.57,861.68l-66.84-9.16a5.57,5.57,0,0,1-1.42-.39l-63.12-26.87a5.57,5.57,0,0,1-3.19-6.61l7.4-26.72a5.57,5.57,0,0,1,6-4l67.82,7.78a5.57,5.57,0,0,1,1.67.46L1426,824.37a5.57,5.57,0,0,1,3.06,6.56l-7.41,26.73A5.57,5.57,0,0,1,1415.57,861.68Z"/><path class="cls-7" d="M1414.2,858.06l-62.75-9.22a5.65,5.65,0,0,1-1.34-.37l-59.58-24.69a5,5,0,0,1-3.1-5.86l6.47-23.33a5,5,0,0,1,5.55-3.45l63.64,8a5.65,5.65,0,0,1,1.57.44l58.69,25.89a5,5,0,0,1,3,5.81l-6.47,23.34A5,5,0,0,1,1414.2,858.06Z"/><text class="cls-15" transform="translate(1301.79 821.46) rotate(15.49)">&lt;div&gt;</text><path class="cls-6" d="M1056.12,1012.08,989.71,1024a5.57,5.57,0,0,1-1.48.07l-68.33-6a5.57,5.57,0,0,1-5.07-5.3L913.62,985a5.57,5.57,0,0,1,4.46-5.7L985,965.78a5.57,5.57,0,0,1,1.73-.08l67.83,7.66a5.57,5.57,0,0,1,4.94,5.29l1.21,27.71A5.57,5.57,0,0,1,1056.12,1012.08Z"/><path class="cls-7" d="M1053.69,1009.06l-62.53,10.62a5.65,5.65,0,0,1-1.39.06l-64.29-5.08a5,5,0,0,1-4.76-4.62l-1.06-24.18a5,5,0,0,1,4.21-5l63-12a5.65,5.65,0,0,1,1.63-.07l63.82,6.49a5,5,0,0,1,4.63,4.6l1.06,24.19A5,5,0,0,1,1053.69,1009.06Z"/><text class="cls-15" transform="translate(935.47 1008.99) rotate(-2.51)">&lt;div&gt;</text><path class="cls-6" d="M1254.84,780.57l-66.7-10.18a5.57,5.57,0,0,1-1.42-.41L1124,742.16a5.57,5.57,0,0,1-3.08-6.66l7.81-26.6a5.57,5.57,0,0,1,6.06-4l67.69,8.8a5.57,5.57,0,0,1,1.66.49l61.71,29.18a5.57,5.57,0,0,1,3,6.6L1261,776.63A5.57,5.57,0,0,1,1254.84,780.57Z"/><path class="cls-7" d="M1253.52,776.93l-62.61-10.17a5.65,5.65,0,0,1-1.33-.39l-59.2-25.59a5,5,0,0,1-3-5.91l6.82-23.23a5,5,0,0,1,5.6-3.36l63.51,9a5.65,5.65,0,0,1,1.56.46l58.29,26.77a5,5,0,0,1,2.89,5.85l-6.82,23.24A5,5,0,0,1,1253.52,776.93Z"/><text class="cls-15" transform="translate(1141.67 738.63) rotate(16.36)">&lt;div&gt;</text></g><g id="Layer_1_copy" data-name="Layer 1 copy"><rect class="cls-16" x="920.2" y="608.32" width="422.88" height="106.06" rx="12" ry="12"/><line class="cls-17" x1="995.27" y1="709.56" x2="948.43" y2="613.14"/><line class="cls-17" x1="981.49" y1="709.56" x2="934.66" y2="613.14"/><line class="cls-17" x1="1022.82" y1="709.56" x2="975.98" y2="613.14"/><line class="cls-17" x1="1009.04" y1="709.56" x2="962.21" y2="613.14"/><line class="cls-17" x1="1050.37" y1="709.56" x2="1003.53" y2="613.14"/><line class="cls-17" x1="1036.59" y1="709.56" x2="989.76" y2="613.14"/><line class="cls-17" x1="1077.91" y1="709.56" x2="1031.08" y2="613.14"/><line class="cls-17" x1="1064.14" y1="709.56" x2="1017.31" y2="613.14"/><line class="cls-17" x1="1105.46" y1="709.56" x2="1058.63" y2="613.14"/><line class="cls-17" x1="1091.69" y1="709.56" x2="1044.86" y2="613.14"/><line class="cls-17" x1="1133.01" y1="709.56" x2="1086.18" y2="613.14"/><line class="cls-17" x1="1119.24" y1="709.56" x2="1072.4" y2="613.14"/><line class="cls-17" x1="1160.56" y1="709.56" x2="1113.73" y2="613.14"/><line class="cls-17" x1="1146.79" y1="709.56" x2="1099.95" y2="613.14"/><line class="cls-17" x1="1188.11" y1="709.56" x2="1141.28" y2="613.14"/><line class="cls-17" x1="1174.34" y1="709.56" x2="1127.5" y2="613.14"/><line class="cls-17" x1="1215.66" y1="709.56" x2="1168.83" y2="613.14"/><line class="cls-17" x1="1201.88" y1="709.56" x2="1155.05" y2="613.14"/><line class="cls-17" x1="1243.21" y1="709.56" x2="1196.37" y2="613.14"/><line class="cls-17" x1="1229.43" y1="709.56" x2="1182.6" y2="613.14"/><line class="cls-17" x1="1270.76" y1="709.56" x2="1223.92" y2="613.14"/><line class="cls-17" x1="1256.98" y1="709.56" x2="1210.15" y2="613.14"/><line class="cls-17" x1="1298.31" y1="709.56" x2="1251.47" y2="613.14"/><line class="cls-17" x1="1284.53" y1="709.56" x2="1237.7" y2="613.14"/><line class="cls-17" x1="1325.85" y1="709.56" x2="1279.02" y2="613.14"/><line class="cls-17" x1="1312.08" y1="709.56" x2="1265.25" y2="613.14"/><line class="cls-17" x1="1338.25" y1="677.88" x2="1306.57" y2="613.14"/><line class="cls-17" x1="1336.87" y1="702.67" x2="1292.8" y2="613.14"/><line class="cls-17" x1="1339.63" y1="651.71" x2="1320.34" y2="613.14"/><line class="cls-17" x1="940.17" y1="709.56" x2="923.64" y2="670.99"/><line class="cls-17" x1="967.72" y1="709.56" x2="925.02" y2="624.16"/><line class="cls-17" x1="953.94" y1="709.56" x2="923.64" y2="647.58"/><rect class="cls-18" x="1136.46" y="477.46" width="214.88" height="129.48" rx="13.67" ry="13.67"/><rect class="cls-16" x="943.61" y="628.98" width="376.04" height="64.74" rx="12" ry="12"/><path class="cls-19" d="M1336,597.3H1157.12V492.73a4.25,4.25,0,0,1,4.25-4.25H1336a11.25,11.25,0,0,1,11.25,11.25V586A11.25,11.25,0,0,1,1336,597.3Z"/><path class="cls-19" d="M978,422.36,883,247.43,747,166.77a16.46,16.46,0,0,1-2.41-26.59l12.58-10.93L905,224l133.61,163.92Z"/><path class="cls-19" d="M596,251,759.49,64.51a7.36,7.36,0,0,1,10.74-.35L800.77,94.7l-185,176.1Z"/><rect class="cls-1" x="839.62" y="70.43" width="8.26" height="216.26" transform="translate(97.85 611.48) rotate(-42.08)"/><rect class="cls-1" x="937.42" y="293.57" width="8.26" height="216.26" transform="translate(-72.63 262.72) rotate(-15.3)"/><path class="cls-18" d="M1130,606.94H994.12c-10.4,0-53.26-37.19-56-48.21-9.89-39.55,31.68-157,31.68-157,4.13-11,13.94-19.28,24.33-19.28H1130a18.83,18.83,0,0,1,18.83,18.83V588.12A18.83,18.83,0,0,1,1130,606.94Z"/><path class="cls-20" d="M1124.74,600.05H1000.39c-9.51,0-48.73-35.14-51.25-45.55-9-37.36,29-148.36,29-148.36,3.78-10.41,12.75-18.22,22.27-18.22h124.35c9.51,0,17.22,8,17.22,17.79V582.27C1142,592.09,1134.25,600.05,1124.74,600.05Z"/><path class="cls-3" d="M1059.18,505h-60.6c-4.64,0-22.26-16-21.9-21,1.39-19.33,11.05-76.66,11.05-76.66,1.84-5.24,6.21-9.17,10.85-9.17h60.6a8.69,8.69,0,0,1,8.39,9v88.89A8.69,8.69,0,0,1,1059.18,505Z"/><path class="cls-21" d="M1091,386.55h-22V358.14a4.65,4.65,0,0,1,4.65-4.65h12.75a4.65,4.65,0,0,1,4.65,4.65Z"/><path class="cls-1" d="M1293.48,689.59s-119.8,6.87-159.78,6.89c-41,0-163.92-6.89-163.92-6.89a16.58,16.58,0,0,1-16.53-16.53V649.64a16.58,16.58,0,0,1,16.53-16.53l161.16-5.51,162.54,5.51A16.58,16.58,0,0,1,1310,649.64v23.42A16.58,16.58,0,0,1,1293.48,689.59Z"/><path class="cls-22" d="M1089.62,385.17h-17.91V360.89a4.65,4.65,0,0,1,4.65-4.65H1085a4.65,4.65,0,0,1,4.65,4.65Z"/><rect class="cls-23" x="905.4" y="245.19" width="11.14" height="15.64" transform="translate(65.28 675.73) rotate(-42.08)"/><rect class="cls-23" x="767.66" y="92.29" width="11.14" height="15.64" transform="translate(132.24 544) rotate(-42.08)"/><line class="cls-24" x1="972.61" y1="306.91" x2="933.06" y2="339.57"/><line class="cls-24" x1="977.39" y1="312.77" x2="936.75" y2="346.34"/><line class="cls-24" x1="982.18" y1="318.64" x2="940.43" y2="353.12"/><line class="cls-24" x1="986.96" y1="324.51" x2="944.11" y2="359.91"/><line class="cls-24" x1="990.98" y1="329.44" x2="947.21" y2="365.61"/><line class="cls-24" x1="995.78" y1="335.32" x2="950.9" y2="372.39"/><line class="cls-24" x1="1000.56" y1="341.19" x2="954.58" y2="379.17"/><line class="cls-24" x1="1005.34" y1="347.06" x2="958.27" y2="385.94"/><rect class="cls-23" x="904.59" y="285.14" width="15.52" height="15.64" transform="translate(-45.25 258.13) rotate(-15.72)"/><path class="cls-25" d="M622.29,260.19s22.52,46.1,16.91,56.11-99,53.43-99,53.43l13.56-12.17,9.13-2.33-6.77-.61,5.76-8.68,9.42.32L564.25,343l3.4-5.74,12.07,0-8.38-3.12s23-34.72,24.69-44.29S620.54,256.36,622.29,260.19Z"/><path class="cls-23" d="M620.68,255.71s19,47.82,13.23,58.14-93.7,55.87-93.7,55.87l9.62-13.51,9.44-2.41-7-.63,6-9,9.73.33-7.29-3.37,3.51-5.92,12.47,0L568,332.08s23.83-35.83,25.53-45.72S618.87,251.75,620.68,255.71Z"/><line class="cls-26" x1="1253.54" y1="498.12" x2="1326.54" y2="498.12"/><line class="cls-26" x1="1253.54" y1="501.49" x2="1326.54" y2="501.49"/><line class="cls-26" x1="1253.54" y1="504.86" x2="1326.54" y2="504.86"/><line class="cls-26" x1="1253.54" y1="509.91" x2="1326.54" y2="509.91"/><line class="cls-26" x1="1253.54" y1="513.28" x2="1326.54" y2="513.28"/><line class="cls-26" x1="1253.54" y1="516.64" x2="1326.54" y2="516.64"/><line class="cls-26" x1="1253.54" y1="521.69" x2="1326.54" y2="521.69"/><line class="cls-26" x1="1253.54" y1="525.06" x2="1326.54" y2="525.06"/><line class="cls-26" x1="1253.54" y1="528.43" x2="1326.54" y2="528.43"/><line class="cls-24" x1="648" y1="240.1" x2="625.3" y2="217.59"/><line class="cls-24" x1="653.48" y1="234.88" x2="630.3" y2="211.89"/><line class="cls-24" x1="658.98" y1="229.66" x2="635.3" y2="206.17"/><line class="cls-24" x1="664.46" y1="224.44" x2="640.3" y2="200.47"/><line class="cls-24" x1="669.08" y1="220.04" x2="644.5" y2="195.68"/><line class="cls-24" x1="674.57" y1="214.81" x2="649.52" y2="189.96"/><line class="cls-24" x1="680.05" y1="209.59" x2="654.52" y2="184.26"/><line class="cls-24" x1="685.55" y1="204.37" x2="659.5" y2="178.56"/><path class="cls-27" d="M1067.57,407.17v88.89a8.69,8.69,0,0,1-8.39,9h-24.85l-16.56-106.79h41.41A8.69,8.69,0,0,1,1067.57,407.17Z"/><path class="cls-28" d="M1347.2,504V581.8c0,8.55-7.86,15.5-17.55,15.5H1289.8l-77.59-108.82h117.44C1339.34,488.48,1347.2,495.42,1347.2,504Z"/><g id="Layer_4" data-name="Layer 4"><path class="cls-6" d="M566.57,361l-34.49,58a5.57,5.57,0,0,1-.92,1.16l-49.34,47.66a5.57,5.57,0,0,1-7.33.36L452.78,451a5.57,5.57,0,0,1-1.39-7.1L485,384.45a5.57,5.57,0,0,1,1.08-1.36l50.23-46.23a5.57,5.57,0,0,1,7.23-.26l21.73,17.24A5.57,5.57,0,0,1,566.57,361Z"/><path class="cls-7" d="M562.7,360.9l-32.94,54.2a5.65,5.65,0,0,1-.86,1.09l-46,45.24a5,5,0,0,1-6.6.57l-19-15a5,5,0,0,1-1-6.45L488.54,385a5.65,5.65,0,0,1,1-1.28l46.71-44a5,5,0,0,1,6.51-.48l19,15.05A5,5,0,0,1,562.7,360.9Z"/><text class="cls-15" transform="matrix(0.62, -0.78, 0.78, 0.62, 485.19, 450.17)">&lt;div&gt;</text></g><path class="cls-25" d="M614.4,252.94s-62-14.88-70.25-6.89-20,115-20,115l11.78-11.66-3.57-14,4.95,9.85,6.89-6.89-5.32-13.39,8.07,10.64L551,328.7l-5.69-14.17,8.44,11.42s24.38-35.28,33.22-39.31S618.56,253.65,614.4,252.94Z"/><path class="cls-23" d="M613.74,254s-51.09-6.17-59.59,2.09-30,104.88-30,104.88l10.6-12.76-.09-9.74,2.4,6.6,7.14-8.05-2.81-9.33,5.12,6.19,4.83-4.91-3.22-12,5.33,7.55s28.54-32.2,37.66-36.38S618,254.78,613.74,254Z"/></g><g id="Layer_6" data-name="Layer 6"><path class="cls-6" d="M1326.3,781.48,1267,749.32a5.57,5.57,0,0,1-1.19-.87L1216.22,701a5.57,5.57,0,0,1-.65-7.31l16.36-22.39a5.57,5.57,0,0,1,7-1.67l60.71,31.21a5.57,5.57,0,0,1,1.4,1l48.18,48.36a5.57,5.57,0,0,1,.55,7.22l-16.36,22.39A5.57,5.57,0,0,1,1326.3,781.48Z"/><path class="cls-7" d="M1326.29,777.61l-55.46-30.77a5.65,5.65,0,0,1-1.12-.82l-47-44.13a5,5,0,0,1-.83-6.58l14.28-19.55a5,5,0,0,1,6.41-1.27l56.72,30a5.65,5.65,0,0,1,1.32,1l45.78,44.93a5,5,0,0,1,.74,6.49L1332.8,776.4A5,5,0,0,1,1326.29,777.61Z"/><text class="cls-8" transform="matrix(0.79, 0.62, -0.62, 0.79, 1238.41, 699.68)">&lt;body&gt;</text><path class="cls-6" d="M1161.44,715l-56.07,37.52a5.57,5.57,0,0,1-1.33.65L1039,775a5.57,5.57,0,0,1-6.77-2.83l-12.2-24.9a5.57,5.57,0,0,1,1.8-7l55.88-39.21a5.57,5.57,0,0,1,1.56-.76l65.23-20.13a5.57,5.57,0,0,1,6.64,2.87l12.2,24.91A5.57,5.57,0,0,1,1161.44,715Z"/><path class="cls-7" d="M1158,713.23,1105,748a5.65,5.65,0,0,1-1.25.61l-60.95,21.08a5,5,0,0,1-6.21-2.33l-10.65-21.74a5,5,0,0,1,1.86-6.26l52.92-36.25a5.65,5.65,0,0,1,1.46-.72l61.08-19.6a5,5,0,0,1,6.09,2.37L1160,706.9A5,5,0,0,1,1158,713.23Z"/><text class="cls-8" transform="translate(1048.13 754.72) rotate(-24.06)">&lt;body&gt;</text></g><g id="Layer_7" data-name="Layer 7"><rect class="cls-16" x="165" y="355" width="10" height="307"/><rect class="cls-16" x="235" y="355" width="10" height="307"/><rect class="cls-16" x="171" y="376" width="65" height="11"/><rect class="cls-29" x="175" y="374" width="60" height="4"/><rect class="cls-16" x="171" y="406" width="65" height="11"/><rect class="cls-29" x="175" y="404" width="60" height="4"/><rect class="cls-16" x="171" y="436" width="65" height="11"/><rect class="cls-29" x="175" y="434" width="60" height="4"/><rect class="cls-16" x="171" y="466" width="65" height="11"/><rect class="cls-29" x="175" y="464" width="60" height="4"/><rect class="cls-16" x="171" y="496" width="65" height="11"/><rect class="cls-29" x="175" y="494" width="60" height="4"/><rect class="cls-16" x="171" y="526" width="65" height="11"/><rect class="cls-29" x="175" y="524" width="60" height="4"/><rect class="cls-16" x="171" y="556" width="65" height="11"/><rect class="cls-29" x="175" y="554" width="60" height="4"/><rect class="cls-16" x="171" y="586" width="65" height="11"/><rect class="cls-29" x="175" y="584" width="60" height="4"/><rect class="cls-16" x="171" y="616" width="65" height="11"/><rect class="cls-29" x="175" y="614" width="60" height="4"/><path class="cls-5" d="M227.58,287.51v45.31H183.39V287.51A16.7,16.7,0,0,1,200,270.85h11a16.39,16.39,0,0,1,6,1.16,16,16,0,0,1,3,1.54A16.61,16.61,0,0,1,227.58,287.51Z"/><rect class="cls-5" x="188.25" y="332.26" width="9.76" height="51.07"/><path class="cls-5" d="M166.22,192.92l-3.94,2.56a2.91,2.91,0,0,0-1.28,2.93l15,88.82a2.91,2.91,0,0,0,4.46,2l3.94-2.56a2.91,2.91,0,0,0,1.28-2.93l-15-88.82A2.91,2.91,0,0,0,166.22,192.92Z"/><rect class="cls-5" x="213.1" y="332.26" width="9.76" height="51.07"/><circle class="cls-5" cx="204.48" cy="249.18" r="18.79"/><path class="cls-30" d="M225.86,238.25v4.48H182.53v-4.48H185v-6A16.5,16.5,0,0,1,201.79,216h5a16.5,16.5,0,0,1,16.75,16.24v6Z"/><path class="cls-5" d="M244.74,192.92l3.94,2.56a2.91,2.91,0,0,1,1.28,2.93l-15,88.82a2.91,2.91,0,0,1-4.46,2l-3.94-2.56a2.91,2.91,0,0,1-1.28-2.93l15-88.82A2.91,2.91,0,0,1,244.74,192.92Z"/><path class="cls-30" d="M200,270.85v62h-6V272A16.42,16.42,0,0,1,200,270.85Z"/><path class="cls-30" d="M217,332.82V272a16.39,16.39,0,0,0-6-1.16v62Z"/><rect class="cls-30" x="183.39" y="303" width="44.19" height="22"/><path class="cls-6" d="M288.55,188.66l-76,20.63a6.5,6.5,0,0,1-1.71.23l-80.08-.09a6.5,6.5,0,0,1-6.44-5.65l-4.22-32.09a6.5,6.5,0,0,1,4.6-7.08L201.11,142a6.5,6.5,0,0,1,2-.26l79.66,2a6.5,6.5,0,0,1,6.28,5.65l4.23,32.1A6.5,6.5,0,0,1,288.55,188.66Z"/><path class="cls-7" d="M285.42,185.4l-71.64,18.7a6.59,6.59,0,0,1-1.61.21l-75.28.62a5.84,5.84,0,0,1-6-4.88l-3.69-28a5.82,5.82,0,0,1,4.39-6.23l72-20.4a6.59,6.59,0,0,1,1.89-.25l74.87,1.06a5.82,5.82,0,0,1,5.85,4.88l3.69,28A5.84,5.84,0,0,1,285.42,185.4Z"/><text class="cls-31" transform="translate(148.4 190.39) rotate(-5.46)">&lt;body&gt;</text><path class="cls-5" d="M244.74,192.92l3.94,2.56a2.91,2.91,0,0,1,1.28,2.93l-15,88.82a2.91,2.91,0,0,1-4.46,2l-3.94-2.56a2.91,2.91,0,0,1-1.28-2.93l15-88.82A2.91,2.91,0,0,1,244.74,192.92Z"/></g></svg>