<svg xmlns="http://www.w3.org/2000/svg" viewBox="0 0 1312 117.75"><defs><style>.cls-1{fill:#006837;}.cls-2{fill:#079942;}</style></defs><title>Asset 6</title><g id="Layer_2" data-name="Layer 2"><g id="דשא_קדמי" data-name="דשא קדמי"><path class="cls-1" d="M0,117.75S50.57-12.08,116.17,5.69,144.87,3,144.87,3s19.13-8.2,24.6,2.73,17.77,24.6,12.3,39.63S200.9,27.55,213.2,22.09s15-6.83,15-6.83-23.23,15-24.6,21.87c12.3-1.37,26-10.93,26-10.93s4.1,12.3-4.1,17.77,41,15,36.9,35.53,36.9,23.23,36.9,23.23,17.77,2.73,41-20.5,26-36.9,26-36.9,9.57,41,1.37,46.47,28.7-17.77,60.13-20.5,35.53,9.57,35.53,9.57l5.47-13.67,4.1,16.4L470.13,59s4.1,27.33,9.57,28.7,5.47-34.17,5.47-34.17,1.37,31.43,4.1,39.63,16.4-15,16.4-15-5.47,13.67-1.37,16.4,49.2-32.8,68.33-30.07S615,93.15,615,93.15l8.2-16.4s-4.1,17.77,0,19.13S630,59,630,59s0,39.63,8.2,41,26-35.53,26-35.53S666.93,100,673.77,100s26-26,47.83-23.23,65.6,24.6,72.43,21.87,35.53-47.83,35.53-47.83l-4.1,15,12.3-20.5-6.83,21.87L841.87,59l8.2,5.47v-15l6.83,15s-2.73-13.67,12.3-9.57,51.93,31.43,51.93,31.43,105.23-26,135.3-13.67,16.4-8.2,16.4-8.2,15,6.83,13.67,12.3,28.7-24.6,28.7-24.6-1.37,5.47,0,9.57,16.4-13.67,16.4-13.67-2.73,8.2,1.37,15,26-17.77,43.73-10.93,49.2,41,51.93,31.43,6.83,0,6.83,0,5.47-10.93,9.57-10.93,6.83,10.93,6.83,10.93,36.9-17.77,34.17-27.33,17.77,26,12.3,31.43,13.21-9.57,13.21-9.57l.46,39.63Z"/><path class="cls-2" d="M0,117.75S50.57,15.28,116.17,29.31s28.7-2.16,28.7-2.16,19.13-6.47,24.6,2.16,17.77,19.42,12.3,31.28,19.13-14,31.43-18.34,15-5.39,15-5.39S205,48.72,203.63,54.11c12.3-1.08,26-8.63,26-8.63s4.1,9.71-4.1,14,41,11.86,36.9,28,36.9,18.34,36.9,18.34,17.77,2.16,41-16.18,26-29.12,26-29.12,9.57,32.36,1.37,36.67,28.7-14,60.13-16.18,35.53,7.55,35.53,7.55l5.47-10.79,4.1,12.94-2.73-19.42s4.1,21.57,9.57,22.65,5.47-27,5.47-27,1.37,24.81,4.1,31.28,16.4-11.86,16.4-11.86-5.47,10.79-1.37,12.94,49.2-25.89,68.33-23.73S615,98.34,615,98.34l8.2-12.94s-4.1,14,0,15.1S630,71.37,630,71.37s0,31.28,8.2,32.36,26-28,26-28,2.73,28,9.57,28,26-20.49,47.83-18.34,65.6,19.42,72.43,17.26S829.57,64.9,829.57,64.9l-4.1,11.86,12.3-16.18-6.83,17.26,10.93-6.47,8.2,4.31V63.82l6.83,11.86s-2.73-10.79,12.3-7.55,51.93,24.81,51.93,24.81,105.23-20.49,135.3-10.79,16.4-6.47,16.4-6.47,15,5.39,13.67,9.71S1115.2,66,1115.2,66s-1.37,4.31,0,7.55,16.4-10.79,16.4-10.79-2.73,6.47,1.37,11.86,26-14,43.73-8.63,49.2,32.36,51.93,24.81,6.83,0,6.83,0,5.47-8.63,9.57-8.63,6.83,8.63,6.83,8.63,36.9-14,34.17-21.57,17.77,20.49,12.3,24.81,13.21-7.55,13.21-7.55l.46,31.28Z"/></g></g></svg>