<svg xmlns="http://www.w3.org/2000/svg" viewBox="0 0 1129 160.03"><defs><style>.cls-1{fill:#006837;}.cls-2{fill:#049b15;}.cls-3{fill:#cecece;stroke:#999;stroke-miterlimit:10;stroke-width:3px;}.cls-4{fill:#999;}</style></defs><title>grassback</title><g id="Layer_2" data-name="Layer 2"><g id="Layer_37" data-name="Layer 37"><path class="cls-1" d="M1127.5,101.06s-43.4-111.43-99.7-96.18-24.63-2.35-24.63-2.35-16.42-7-21.11,2.35S966.81,26,971.5,38.89s-16.42-15.25-27-19.94-12.9-5.86-12.9-5.86S951.56,26,952.74,31.86c-10.56-1.17-22.29-9.38-22.29-9.38S926.93,33,934,37.72s-35.19,12.9-31.67,30.5-31.67,19.94-31.67,19.94-15.25,2.35-35.19-17.59-22.29-31.67-22.29-31.67S804.95,74.08,812,78.77s-24.63-15.25-51.61-17.59-30.5,8.21-30.5,8.21l-4.69-11.73-3.52,14.08L724,50.62s-3.52,23.46-8.21,24.63-4.69-29.32-4.69-29.32-1.17,27-3.52,34S693.52,67,693.52,67s4.69,11.73,1.17,14.08S652.47,53,636,55.31s-36.36,24.63-36.36,24.63l-7-14.08s3.52,15.25,0,16.42-5.86-31.67-5.86-31.67,0,34-7,35.19-22.29-30.5-22.29-30.5-2.35,30.5-8.21,30.5S527,63.53,508.2,65.87,451.9,87,446,84.64s-30.5-41.05-30.5-41.05l3.52,12.9L408.5,38.89l5.86,18.77-9.38-7-7,4.69V42.41l-5.86,12.9s2.35-11.73-10.56-8.21-44.57,27-44.57,27S246.64,51.8,220.84,62.35s-14.07-7-14.07-7S193.86,61.18,195,65.87,170.4,44.76,170.4,44.76s1.17,4.69,0,8.21-14.08-11.73-14.08-11.73,2.35,7-1.17,12.9-22.29-15.25-37.53-9.38S75.39,79.95,73,71.74s-5.86,0-5.86,0S62.49,62.35,59,62.35s-5.86,9.38-5.86,9.38S21.44,56.49,23.79,48.28s-15.25,22.29-10.56,27S1.89,67,1.89,67l-.39,34Z"/><path class="cls-2" d="M1127.5,101.06s-43.4-87.94-99.7-75.91-24.63-1.85-24.63-1.85-16.42-5.55-21.11,1.85S966.81,41.81,971.5,52s-16.42-12-27-15.74-12.9-4.63-12.9-4.63,19.94,10.18,21.11,14.81C942.18,45.52,930.45,39,930.45,39s-3.52,8.33,3.52,12S898.78,61.25,902.3,75.14s-31.67,15.74-31.67,15.74S855.38,92.73,835.44,77s-22.29-25-22.29-25S804.95,79.77,812,83.47s-24.63-12-51.61-13.89-30.5,6.48-30.5,6.48l-4.69-9.26-3.52,11.11L724,61.25s-3.52,18.51-8.21,19.44-4.69-23.14-4.69-23.14-1.17,21.29-3.52,26.85-14.07-10.18-14.07-10.18,4.69,9.26,1.17,11.11S652.47,63.1,636,65,599.69,84.4,599.69,84.4l-7-11.11s3.52,12,0,13-5.86-25-5.86-25,0,26.85-7,27.77S557.46,65,557.46,65,555.12,89,549.25,89,527,71.44,508.2,73.29,451.9,90,446,88.1s-30.5-32.4-30.5-32.4l3.52,10.18L408.5,52l5.86,14.81L405,61.25l-7,3.7V54.77L392.08,65s2.35-9.26-10.56-6.48S337,79.77,337,79.77s-90.31-17.59-116.12-9.26S206.76,65,206.76,65s-12.9,4.63-11.73,8.33S170.4,56.62,170.4,56.62s1.17,3.7,0,6.48-14.08-9.26-14.08-9.26,2.35,5.55-1.17,10.18-22.29-12-37.53-7.41S75.39,84.4,73,77.92s-5.86,0-5.86,0S62.49,70.51,59,70.51s-5.86,7.41-5.86,7.41-31.67-12-29.32-18.51S8.54,77,13.23,80.69,1.89,74.21,1.89,74.21L1.5,101.06Z"/><rect class="cls-3" x="1.5" y="97.54" width="1126" height="60.99"/><rect class="cls-4" x="42.55" y="123.97" width="45.74" height="8.13"/><rect class="cls-4" x="111.75" y="123.97" width="45.74" height="8.13"/><rect class="cls-4" x="180.96" y="123.97" width="45.74" height="8.13"/><rect class="cls-4" x="241.95" y="123.97" width="45.74" height="8.13"/><rect class="cls-4" x="311.15" y="123.97" width="45.74" height="8.13"/><rect class="cls-4" x="380.35" y="123.97" width="45.74" height="8.13"/><rect class="cls-4" x="382.7" y="123.97" width="45.74" height="8.13"/><rect class="cls-4" x="451.9" y="123.97" width="45.74" height="8.13"/><rect class="cls-4" x="521.1" y="123.97" width="45.74" height="8.13"/><rect class="cls-4" x="582.09" y="123.97" width="45.74" height="8.13"/><rect class="cls-4" x="651.3" y="123.97" width="45.74" height="8.13"/><rect class="cls-4" x="720.5" y="123.97" width="45.74" height="8.13"/><rect class="cls-4" x="781.49" y="123.97" width="45.74" height="8.13"/><rect class="cls-4" x="850.69" y="123.97" width="45.74" height="8.13"/><rect class="cls-4" x="919.89" y="123.97" width="45.74" height="8.13"/><rect class="cls-4" x="980.89" y="123.97" width="45.74" height="8.13"/><rect class="cls-4" x="1050.09" y="123.97" width="45.74" height="8.13"/></g></g></svg>