<svg xmlns="http://www.w3.org/2000/svg" viewBox="0 0 42 42"><defs><style>.cls-1{fill:#f288d6;}.cls-2{fill:#4d4d4d;opacity:0.25;}.cls-3,.cls-5{fill:#fff;}.cls-4,.cls-5{stroke:#000;}.cls-4{stroke-miterlimit:10;}.cls-5{stroke-linejoin:round;}</style></defs><title>b1_1</title><g id="Layer_2" data-name="Layer 2"><g id="icon1"><path class="cls-1" d="M42,21q0,1-.09,1.91A21,21,0,1,1,42,21Z"/><path class="cls-2" d="M41.82,23.71A21,21,0,0,1,25.28,41.56a1.55,1.55,0,0,1-1.37-.39L13.68,31.6a1.55,1.55,0,0,1-.21-2l13-18.4a1.55,1.55,0,0,1,2.31-.25L41.33,22.38A1.55,1.55,0,0,1,41.82,23.71Z"/><path class="cls-3" d="M12.85,30.38V12.84A2.87,2.87,0,0,1,15.72,10h9.94a2.87,2.87,0,0,1,2.87,2.87V30.38Z"/><path d="M25.66,10.47A2.37,2.37,0,0,1,28,12.84v17H13.35v-17a2.37,2.37,0,0,1,2.37-2.37h9.94m0-1H15.72a3.37,3.37,0,0,0-3.37,3.37v18H29v-18a3.37,3.37,0,0,0-3.37-3.37Z"/><rect class="cls-4" x="16.26" y="8.24" width="0.82" height="4.12" rx="0.41" ry="0.41"/><rect class="cls-4" x="18.32" y="8.24" width="0.82" height="4.12" rx="0.41" ry="0.41"/><rect class="cls-4" x="20.38" y="8.24" width="0.82" height="4.12" rx="0.41" ry="0.41"/><rect class="cls-4" x="22.44" y="8.24" width="0.82" height="4.12" rx="0.41" ry="0.41"/><rect class="cls-4" x="24.5" y="8.24" width="0.82" height="4.12" rx="0.41" ry="0.41"/><path class="cls-5" d="M21.17,35.41H19.8a.65.65,0,0,1-.65-.65L19.35,28l-.21-7a.65.65,0,0,1,.65-.65h1.37a.65.65,0,0,1,.65.65l-.21,7,.21,6.76A.65.65,0,0,1,21.17,35.41Z"/><path d="M20.49,17,19,20.14a.6.6,0,0,0,.54.86,5.66,5.66,0,0,0,.89.21,6.57,6.57,0,0,0,1-.21.63.63,0,0,0,.57-.91Z"/></g></g></svg>