<svg xmlns="http://www.w3.org/2000/svg" viewBox="0 0 42 42"><defs><style>.cls-1{fill:#f288d6;}.cls-2{fill:#666;opacity:0.2;}.cls-3{fill:#fff;stroke:#000;stroke-miterlimit:10;}.cls-4{font-size:15px;font-family:MyriadHebrew-Regular, Myriad Hebrew;}</style></defs><title>b1_2</title><g id="Layer_2" data-name="Layer 2"><g id="icon2_money"><path class="cls-1" d="M42,21c0,.64,0,1.27-.09,1.9A21,21,0,0,1,26.42,41.29c-.63.17-1.27.31-1.93.42A21,21,0,1,1,41.67,17.33a20.33,20.33,0,0,1,.31,3C42,20.58,42,20.79,42,21Z"/><path class="cls-2" d="M41.77,23.18c-.06.64-.15,1.26-.26,1.88A21,21,0,0,1,29.33,40.48l-17.88-10c-.86-.5-2.08-2.94-1.36-3.63l14-13.25a2.12,2.12,0,0,1,2.28-.41L41.77,19.5a20.33,20.33,0,0,1,0,3.07C41.81,22.77,41.79,23,41.77,23.18Z"/><path class="cls-3" d="M33.68,21.77c0,2.41-1.09,6.42-2.89,8.15-2.33,2.21-5.85,1.82-9.78,1.82-4.2,0-7.93.21-10.23-2.27C9.23,27.82,8.32,24,8.32,21.77c0-4.24,3.37-7.86,8.12-9.3,1.41-.43,2.95,3,4.56,3,1.3,0,2.55-3.47,3.72-3.19C29.91,13.5,33.68,17.29,33.68,21.77Z"/><path class="cls-3" d="M21,12.54s-6-3-5-5,4,1,4,1,1-3,2-3,1,3,1,3,0-3,2-2-4,6-4,6"/><text class="cls-4" transform="translate(13.46 27.5)">$</text></g></g></svg>