<svg xmlns="http://www.w3.org/2000/svg" viewBox="0 0 42 42"><defs><style>.cls-1{fill:#f288d6;}.cls-2{fill:#4d4d4d;opacity:0.2;}.cls-3{fill:#fff;stroke:#000;stroke-miterlimit:10;stroke-width:0.75px;}</style></defs><title>b1_3</title><g id="Layer_2" data-name="Layer 2"><g id="icon3"><path class="cls-1" d="M42,21c0,.64,0,1.27-.09,1.9A21,21,0,0,1,31.19,39.36a20.46,20.46,0,0,1-4.64,1.89l-.13,0c-.63.17-1.27.31-1.93.42A21,21,0,1,1,41.67,17.33c.05.3.1.6.14.91A21.35,21.35,0,0,1,42,20.38C42,20.58,42,20.79,42,21Z"/><path class="cls-2" d="M42,21c0,.64,0,1.27-.09,1.9A21,21,0,0,1,31.19,39.36a20.46,20.46,0,0,1-4.64,1.89l-7.36-5.66h0l-.68-.53h0l2-17L25.22,7.12l.41.27,0,0L41.81,18.24A21.35,21.35,0,0,1,42,20.38C42,20.58,42,20.79,42,21Z"/><path class="cls-3" d="M27.09,16.11A7,7,0,0,1,22,19.58l1,14.57s-2.22,3-4.43,1c-1.69-1.52.13-12,.85-15.68A7,7,0,0,1,14.91,9.19a7.06,7.06,0,0,1,3-2.83l.58,4.79,2,1,3-3,.06-3a5.2,5.2,0,0,1,.9.41A7,7,0,0,1,27.09,16.11Z"/></g></g></svg>