<svg xmlns="http://www.w3.org/2000/svg" viewBox="0 0 42 42"><defs><style>.cls-1{fill:#f288d6;}.cls-2{fill:#4d4d4d;opacity:0.2;}.cls-3{fill:#fff;stroke-width:0.75px;}.cls-3,.cls-4{stroke:#000;stroke-miterlimit:10;}.cls-4{fill:none;stroke-width:0.5px;}</style></defs><title>b1_4</title><g id="Layer_2" data-name="Layer 2"><g id="icon4_cook"><path class="cls-1" d="M42,21c0,.64,0,1.27-.09,1.9A20.94,20.94,0,0,1,31.19,39.36a20,20,0,0,1-2.24,1.07,18.35,18.35,0,0,1-2.4.82l-.13,0c-.63.17-1.27.31-1.93.42A21,21,0,1,1,41.3,15.63c.15.56.27,1.13.37,1.7.05.3.1.6.14.91A21.35,21.35,0,0,1,42,20.38C42,20.58,42,20.79,42,21Z"/><path class="cls-2" d="M42,21c0,.64,0,1.27-.09,1.9A20.94,20.94,0,0,1,31.19,39.36a20,20,0,0,1-2.24,1.07L12.47,33.37c-.94-.45.13-2.28.78-3.09L29,10.87l-.19-.19,12.52,5c.15.56.27,1.13.37,1.7.05.3.1.6.14.91A21.35,21.35,0,0,1,42,20.38C42,20.58,42,20.79,42,21Z"/><path class="cls-3" d="M33.5,17.5a7.43,7.43,0,0,1-3,6v6.83A2.68,2.68,0,0,1,27.81,33H14.19a2.68,2.68,0,0,1-2.69-2.69V23.48a7.47,7.47,0,0,1,2.09-13.07C14.11,6.79,17.73,5,21.5,5s6.39,1.79,6.91,5.41A7.47,7.47,0,0,1,33.5,17.5Z"/><ellipse class="cls-3" cx="21" cy="31" rx="9.5" ry="4"/><path class="cls-4" d="M23.77,13.18c.2-2.31,2.88-2.35,4.69-2.68"/></g></g></svg>