<svg xmlns="http://www.w3.org/2000/svg" xmlns:xlink="http://www.w3.org/1999/xlink" viewBox="0 0 42 42"><defs><style>.cls-1{fill:url(#linear-gradient);}.cls-2{fill:#4d4d4d;opacity:0.2;}.cls-3{fill:#fff;stroke:#000;stroke-miterlimit:10;stroke-width:0.75px;}.cls-4{font-size:14px;font-family:MyriadHebrew-Regular, Myriad Hebrew;}</style><linearGradient id="linear-gradient" x1="-16.17" y1="21" x2="25.83" y2="21" gradientTransform="matrix(-1, 0, 0, 1, 25.83, 0)" gradientUnits="userSpaceOnUse"><stop offset="0" stop-color="#ffa189"/><stop offset="0.67" stop-color="#ffb85f"/></linearGradient></defs><title>b2_1</title><g id="Layer_2" data-name="Layer 2"><g id="icon6"><path class="cls-1" d="M0,21c0,.64,0,1.27.09,1.9A21,21,0,0,0,10.81,39.36a20.63,20.63,0,0,0,4.13,1.74l.64.19.32.08c.53.14,1.06.25,1.61.34A21,21,0,1,0,.33,17.33c0,.23-.08.45-.11.68s-.07.47-.09.7C.07,19.26,0,19.82,0,20.38,0,20.58,0,20.79,0,21Z"/><path class="cls-2" d="M0,21c0,.64,0,1.27.09,1.9A21,21,0,0,0,10.81,39.36a20.63,20.63,0,0,0,4.13,1.74L32.45,29.43a1.87,1.87,0,0,0,.16-3l-14.42-12a4,4,0,0,0-3.72-.75L.22,18c0,.23-.07.47-.09.7C.07,19.26,0,19.82,0,20.38,0,20.58,0,20.79,0,21Z"/><ellipse class="cls-3" cx="26.03" cy="27.29" rx="9" ry="2.75"/><ellipse class="cls-3" cx="25.03" cy="23.29" rx="9" ry="2.75"/><ellipse class="cls-3" cx="23.03" cy="19.29" rx="9" ry="2.75"/><ellipse class="cls-3" cx="21.03" cy="15.29" rx="9" ry="2.75"/><circle class="cls-3" cx="16" cy="24" r="7.5"/><text class="cls-4" transform="matrix(-1, 0, 0, 1, 20.28, 28.23)">$</text></g></g></svg>