<svg xmlns="http://www.w3.org/2000/svg" xmlns:xlink="http://www.w3.org/1999/xlink" viewBox="0 0 42 42"><defs><style>.cls-1{fill:url(#linear-gradient);}.cls-2{fill:#666;opacity:0.25;}.cls-3{fill:#fff;stroke-width:0.75px;}.cls-3,.cls-4{stroke:#000;stroke-miterlimit:10;}.cls-4{fill:none;stroke-width:0.25px;}</style><linearGradient id="linear-gradient" x1="-1.65" y1="21" x2="40.35" y2="21" gradientTransform="matrix(-1, 0, 0, 1, 40.35, 0)" gradientUnits="userSpaceOnUse"><stop offset="0" stop-color="#ffa189"/><stop offset="0.67" stop-color="#ffb85f"/></linearGradient></defs><title>b2_2</title><g id="Layer_2" data-name="Layer 2"><g id="icon5"><path class="cls-1" d="M0,21c0,.64,0,1.27.09,1.9A21,21,0,0,0,15.58,41.29l.32.08c.53.14,1.06.25,1.61.34A21,21,0,1,0,.33,17.33c-.08.45-.15.91-.2,1.38S0,19.82,0,20.38C0,20.58,0,20.79,0,21Z"/><path class="cls-2" d="M0,21c0,.64,0,1.27.09,1.9A21,21,0,0,0,15.58,41.29l.32.08L29.53,32l-16-23L.13,18.71C.07,19.26,0,19.82,0,20.38,0,20.58,0,20.79,0,21Z"/><path class="cls-3" d="M13,32.5H28.27a.73.73,0,0,0,.73-.73V9.5H13.73a.73.73,0,0,0-.73.73Z"/><line class="cls-4" x1="27.53" y1="13.04" x2="14.53" y2="13.04"/><line class="cls-4" x1="27.53" y1="15.04" x2="14.53" y2="15.04"/><line class="cls-4" x1="27.53" y1="17.04" x2="14.53" y2="17.04"/><line class="cls-4" x1="27.53" y1="19.04" x2="14.53" y2="19.04"/><line class="cls-4" x1="27.53" y1="21.04" x2="14.53" y2="21.04"/><line class="cls-4" x1="27.53" y1="23.04" x2="14.53" y2="23.04"/><line class="cls-4" x1="27.53" y1="25.04" x2="14.53" y2="25.04"/><line class="cls-4" x1="27.53" y1="27.04" x2="14.53" y2="27.04"/><line class="cls-4" x1="27.53" y1="29.04" x2="14.53" y2="29.04"/></g></g></svg>