<svg xmlns="http://www.w3.org/2000/svg" xmlns:xlink="http://www.w3.org/1999/xlink" viewBox="0 0 42 42"><defs><style>.cls-1{fill:url(#linear-gradient);}.cls-2{fill:#4d4d4d;opacity:0.2;}.cls-3{fill:#fff;stroke:#000;stroke-miterlimit:10;stroke-width:0.75px;}</style><linearGradient id="linear-gradient" x1="-10.18" y1="21" x2="31.82" y2="21" gradientTransform="matrix(-1, 0, 0, 1, 31.82, 0)" gradientUnits="userSpaceOnUse"><stop offset="0" stop-color="#ffa189"/><stop offset="0.67" stop-color="#ffb85f"/></linearGradient></defs><title>b2_3</title><g id="Layer_2" data-name="Layer 2"><g id="icon6_copy" data-name="icon6 copy"><path class="cls-1" d="M0,21c0,.64,0,1.27.09,1.9A21,21,0,0,0,10.81,39.36a20.63,20.63,0,0,0,4.13,1.74l.64.19.32.08c.53.14,1.06.25,1.61.34s1,.15,1.57.2S20.35,42,21,42A21,21,0,1,0,.33,17.33c0,.23-.08.45-.11.68s-.07.47-.09.7C.07,19.26,0,19.82,0,20.38a2.94,2.94,0,0,0,0,.42A1.27,1.27,0,0,0,0,21Z"/><path class="cls-2" d="M0,21c0,.64,0,1.27.09,1.9A21,21,0,0,0,10.81,39.36a20.63,20.63,0,0,0,4.13,1.74l.64.19.32.08c.53.14,1.06.25,1.61.34s1,.15,1.57.2L28.53,34c.36-.3.81-1.3.55-1.69L21.53,26,15.06,11.1a.93.93,0,0,0-1.32-.24L0,20.8A1.27,1.27,0,0,0,0,21Z"/><path class="cls-3" d="M13.68,12l7.2,19.83s6.72,2.81,8,1.24-.32-9.21-2.35-8.28l-3.25,3a.67.67,0,0,1-.91-.37L18.07,16.33a1.06,1.06,0,0,1,.82-1.43c1.65-.28,4.19-.87,4.17-1.85,0-1.79.19-5.13-2-5.46S12,9.32,13.68,12"/><path d="M27.7,22.25a3,3,0,0,0,.91-1.81,2.84,2.84,0,0,0-.41-1.85,4.25,4.25,0,0,0-3.43-1.93,3.35,3.35,0,0,1,2.26,0,3.58,3.58,0,0,1,1.82,1.5,3,3,0,0,1,.34,2.35A2.46,2.46,0,0,1,27.7,22.25Z"/><path d="M28.45,22.89a3.93,3.93,0,0,0,.8-5.06,5.59,5.59,0,0,0-4.79-2.56,4.74,4.74,0,0,1,3,.16,4.89,4.89,0,0,1,2.4,2,4,4,0,0,1,.48,3.11A3.42,3.42,0,0,1,28.45,22.89Z"/><circle cx="24.55" cy="19.54" r="0.5"/><path d="M26.15,20.81a1.69,1.69,0,0,0,.34-1,1.5,1.5,0,0,0-.23-.85,2.54,2.54,0,0,0-1.64-1.1,1.58,1.58,0,0,1,1.24-.1,1.88,1.88,0,0,1,1,.82A1.62,1.62,0,0,1,27.06,20,1.23,1.23,0,0,1,26.15,20.81Z"/></g></g></svg>