<svg xmlns="http://www.w3.org/2000/svg" xmlns:xlink="http://www.w3.org/1999/xlink" viewBox="0 0 42 42"><defs><style>.cls-1{fill:url(#linear-gradient);}.cls-2{fill:#333;opacity:0.2;}.cls-3{fill:#fff;stroke:#000;stroke-miterlimit:10;stroke-width:0.75px;}.cls-4{font-size:18px;font-family:MyriadHebrew-Regular, Myriad Hebrew;}</style><linearGradient id="linear-gradient" x1="-2.06" y1="21" x2="39.94" y2="21" gradientTransform="matrix(-1, 0, 0, 1, 39.94, 0)" gradientUnits="userSpaceOnUse"><stop offset="0" stop-color="#ffa189"/><stop offset="0.67" stop-color="#ffb85f"/></linearGradient></defs><title>b2_4</title><g id="Layer_2" data-name="Layer 2"><g id="icon6_copy_2" data-name="icon6 copy 2"><path class="cls-1" d="M0,21c0,.64,0,1.27.09,1.9A21,21,0,0,0,10.81,39.36a20.63,20.63,0,0,0,4.13,1.74l.29.08.35.11.32.08c.53.14,1.06.25,1.61.34s1,.15,1.57.2S20.35,42,21,42A21,21,0,1,0,.33,17.33c0,.23-.08.45-.11.68s-.07.47-.09.7c0,0,0,.07,0,.11-.05.51-.08,1-.1,1.56a2.94,2.94,0,0,0,0,.42A1.27,1.27,0,0,0,0,21Z"/><path class="cls-2" d="M0,21c0,.64,0,1.27.09,1.9A21,21,0,0,0,10.81,39.36a20.63,20.63,0,0,0,4.13,1.74l.29.08,17.36-9.81-12-22L.12,18.82c-.05.51-.08,1-.1,1.56a2.94,2.94,0,0,0,0,.42A1.27,1.27,0,0,0,0,21Z"/><path class="cls-3" d="M21.71,10,33.29,30a.81.81,0,0,1-.7,1.22H9.42A.81.81,0,0,1,8.72,30L20.3,10A.81.81,0,0,1,21.71,10Z"/><text class="cls-4" transform="matrix(-1, 0, 0, 1, 24.32, 27.4)">!</text></g></g></svg>